<?xml version="1.0" encoding="utf-8"?>
<!-- Generator: Adobe Illustrator 17.1.0, SVG Export Plug-In . SVG Version: 6.00 Build 0)  -->
<!DOCTYPE svg PUBLIC "-//W3C//DTD SVG 1.1//EN" "http://www.w3.org/Graphics/SVG/1.1/DTD/svg11.dtd">
<svg version="1.1" xmlns="http://www.w3.org/2000/svg" xmlns:xlink="http://www.w3.org/1999/xlink" x="0px" y="0px"
	 viewBox="0 0 144 72" enable-background="new 0 0 144 72" xml:space="preserve">
<g id="Base">
</g>
<g id="Art">
	<path fill="#8E8E8E" d="M96.694,14.12c0.691,1.184,1.037,2.478,1.037,3.88s-0.346,2.696-1.037,3.88
		c-0.691,1.184-1.629,2.122-2.813,2.813c-1.184,0.691-2.478,1.037-3.88,1.037c-0.745,0-1.476-0.107-2.194-0.322
		c0.396-0.624,0.658-1.174,0.785-1.651c0.06-0.228,0.242-0.936,0.544-2.124c0.134,0.262,0.379,0.488,0.735,0.679
		c0.356,0.191,0.738,0.287,1.147,0.287c0.812,0,1.537-0.23,2.174-0.689c0.637-0.46,1.131-1.092,1.48-1.897
		c0.349-0.805,0.523-1.711,0.523-2.718c0-0.765-0.2-1.483-0.599-2.154c-0.399-0.671-0.978-1.218-1.736-1.641
		c-0.758-0.423-1.614-0.634-2.567-0.634c-0.705,0-1.362,0.097-1.973,0.292c-0.611,0.195-1.129,0.453-1.555,0.775
		c-0.426,0.322-0.792,0.693-1.097,1.112c-0.305,0.42-0.53,0.854-0.674,1.304c-0.144,0.45-0.216,0.899-0.216,1.349
		c0,0.698,0.134,1.312,0.403,1.842c0.268,0.53,0.661,0.903,1.178,1.117c0.201,0.081,0.329,0.014,0.383-0.201
		c0.013-0.047,0.04-0.151,0.081-0.312c0.04-0.161,0.067-0.262,0.081-0.302c0.04-0.154,0.003-0.298-0.111-0.433
		c-0.342-0.409-0.513-0.916-0.513-1.52c0-1.013,0.351-1.884,1.052-2.612c0.701-0.728,1.619-1.092,2.753-1.092
		c1.013,0,1.803,0.275,2.37,0.825c0.567,0.55,0.85,1.265,0.85,2.144c0,1.141-0.23,2.11-0.689,2.909
		c-0.46,0.799-1.049,1.198-1.767,1.198c-0.409,0-0.738-0.146-0.986-0.438c-0.248-0.292-0.326-0.642-0.232-1.052
		c0.054-0.235,0.143-0.549,0.267-0.941c0.124-0.393,0.225-0.738,0.302-1.037c0.077-0.298,0.116-0.552,0.116-0.76
		c0-0.335-0.091-0.614-0.272-0.835c-0.181-0.222-0.44-0.332-0.775-0.332c-0.416,0-0.768,0.191-1.057,0.574
		c-0.289,0.382-0.433,0.859-0.433,1.429c0,0.49,0.084,0.899,0.252,1.228l-0.996,4.208c-0.114,0.47-0.158,1.064-0.131,1.782
		c-1.382-0.611-2.5-1.553-3.352-2.828C82.696,20.983,82.27,19.564,82.27,18c0-1.403,0.346-2.696,1.037-3.88
		c0.691-1.184,1.629-2.122,2.813-2.813c1.184-0.691,2.478-1.037,3.88-1.037c1.402,0,2.696,0.346,3.88,1.037
		C95.065,11.998,96.002,12.935,96.694,14.12z"/>
	<path fill="#8E8E8E" d="M24.557,14.288c0.624-0.067,1.248-0.235,1.872-0.503c-0.45,0.658-0.993,1.218-1.631,1.681
		c0.007,0.094,0.01,0.235,0.01,0.423c0,0.872-0.128,1.743-0.382,2.612c-0.255,0.869-0.643,1.703-1.163,2.501
		c-0.52,0.799-1.139,1.505-1.857,2.119c-0.718,0.614-1.584,1.104-2.597,1.47c-1.013,0.366-2.097,0.549-3.251,0.549
		c-1.819,0-3.483-0.486-4.993-1.46c0.235,0.027,0.497,0.04,0.785,0.04c1.51,0,2.855-0.463,4.036-1.389
		c-0.705-0.013-1.335-0.23-1.892-0.649c-0.557-0.419-0.94-0.954-1.147-1.605c0.221,0.034,0.426,0.05,0.614,0.05
		c0.288,0,0.574-0.037,0.856-0.111c-0.752-0.154-1.374-0.528-1.867-1.122c-0.493-0.594-0.74-1.283-0.74-2.069v-0.04
		c0.456,0.255,0.946,0.393,1.47,0.413c-0.443-0.295-0.795-0.681-1.057-1.158c-0.262-0.477-0.393-0.993-0.393-1.55
		c0-0.59,0.147-1.138,0.443-1.641c0.812,1,1.8,1.8,2.964,2.401c1.164,0.601,2.411,0.935,3.739,1.002
		c-0.054-0.255-0.081-0.503-0.081-0.745c0-0.899,0.317-1.666,0.951-2.3c0.634-0.634,1.401-0.951,2.3-0.951
		c0.939,0,1.731,0.342,2.375,1.027c0.731-0.141,1.419-0.403,2.063-0.785C25.738,13.268,25.262,13.865,24.557,14.288L24.557,14.288z"
		/>
	<path fill="#8E8E8E" d="M55.278,15.106h2.587l-0.302,2.859h-2.285v8.294h-3.432v-8.294h-1.711v-2.859h1.711v-1.721
		c0-1.221,0.288-2.145,0.866-2.773c0.577-0.628,1.527-0.941,2.849-0.941h2.285v2.859h-1.429c-0.262,0-0.472,0.022-0.629,0.065
		c-0.158,0.044-0.272,0.122-0.342,0.237c-0.07,0.114-0.116,0.23-0.136,0.347c-0.02,0.117-0.03,0.283-0.03,0.498V15.106z"/>
	<path fill="#8E8E8E" d="M133.72,12.283v11.495c0,0.543-0.195,1.01-0.584,1.399c-0.389,0.389-0.856,0.584-1.399,0.584h-11.495
		c-0.544,0-1.01-0.195-1.399-0.584c-0.389-0.389-0.584-0.856-0.584-1.399V12.283c0-0.543,0.195-1.01,0.584-1.399
		c0.389-0.389,0.856-0.584,1.399-0.584h11.495c0.544,0,1.01,0.195,1.399,0.584C133.526,11.273,133.72,11.739,133.72,12.283z
		 M131.969,23.365v-6.523h-1.359c0.134,0.423,0.201,0.863,0.201,1.319c0,0.845-0.215,1.625-0.644,2.34
		c-0.43,0.714-1.013,1.28-1.751,1.696c-0.738,0.416-1.544,0.624-2.416,0.624c-1.322,0-2.453-0.455-3.392-1.364
		c-0.94-0.909-1.409-2.008-1.409-3.296c0-0.456,0.067-0.896,0.201-1.319h-1.419v6.523c0,0.175,0.059,0.32,0.176,0.438
		c0.117,0.118,0.263,0.176,0.438,0.176h10.76c0.168,0,0.312-0.059,0.433-0.176C131.909,23.685,131.969,23.54,131.969,23.365z
		 M126,21.01c0.859,0,1.592-0.294,2.199-0.881c0.607-0.587,0.911-1.297,0.911-2.129c0-0.832-0.304-1.542-0.911-2.129
		c-0.607-0.587-1.34-0.881-2.199-0.881c-0.852,0-1.582,0.294-2.189,0.881c-0.607,0.587-0.911,1.297-0.911,2.129
		c0,0.832,0.304,1.542,0.911,2.129C124.418,20.716,125.148,21.01,126,21.01L126,21.01z M131.969,14.376v-1.661
		c0-0.188-0.067-0.35-0.201-0.488c-0.134-0.138-0.299-0.206-0.493-0.206h-1.751c-0.195,0-0.359,0.069-0.493,0.206
		c-0.134,0.138-0.201,0.3-0.201,0.488v1.661c0,0.195,0.067,0.359,0.201,0.493c0.134,0.134,0.299,0.201,0.493,0.201h1.751
		c0.195,0,0.359-0.067,0.493-0.201C131.902,14.736,131.969,14.571,131.969,14.376z"/>
	<path fill="#FFFFFF" d="M96.694,50.12c0.691,1.184,1.037,2.478,1.037,3.88s-0.346,2.696-1.037,3.88
		c-0.691,1.184-1.629,2.122-2.813,2.813c-1.184,0.691-2.478,1.037-3.88,1.037c-0.745,0-1.476-0.107-2.194-0.322
		c0.396-0.624,0.658-1.174,0.785-1.651c0.06-0.228,0.242-0.936,0.544-2.124c0.134,0.262,0.379,0.488,0.735,0.679
		c0.356,0.191,0.738,0.287,1.147,0.287c0.812,0,1.537-0.23,2.174-0.689c0.637-0.46,1.131-1.092,1.48-1.897
		c0.349-0.805,0.523-1.711,0.523-2.718c0-0.765-0.2-1.483-0.599-2.154c-0.399-0.671-0.978-1.218-1.736-1.641
		c-0.758-0.423-1.614-0.634-2.567-0.634c-0.705,0-1.362,0.097-1.973,0.292c-0.611,0.195-1.129,0.453-1.555,0.775
		c-0.426,0.322-0.792,0.693-1.097,1.112c-0.305,0.42-0.53,0.854-0.674,1.304c-0.144,0.45-0.216,0.899-0.216,1.349
		c0,0.698,0.134,1.312,0.403,1.842c0.268,0.53,0.661,0.903,1.178,1.117c0.201,0.081,0.329,0.014,0.383-0.201
		c0.013-0.047,0.04-0.151,0.081-0.312c0.04-0.161,0.067-0.262,0.081-0.302c0.04-0.154,0.003-0.298-0.111-0.433
		c-0.342-0.409-0.513-0.916-0.513-1.52c0-1.013,0.351-1.884,1.052-2.612c0.701-0.728,1.619-1.092,2.753-1.092
		c1.013,0,1.803,0.275,2.37,0.825c0.567,0.55,0.85,1.265,0.85,2.144c0,1.141-0.23,2.11-0.689,2.909
		c-0.46,0.799-1.049,1.198-1.767,1.198c-0.409,0-0.738-0.146-0.986-0.438c-0.248-0.292-0.326-0.642-0.232-1.052
		c0.054-0.235,0.143-0.549,0.267-0.941c0.124-0.393,0.225-0.738,0.302-1.037c0.077-0.298,0.116-0.552,0.116-0.76
		c0-0.335-0.091-0.614-0.272-0.835c-0.181-0.222-0.44-0.332-0.775-0.332c-0.416,0-0.768,0.191-1.057,0.574
		c-0.289,0.382-0.433,0.859-0.433,1.429c0,0.49,0.084,0.899,0.252,1.228l-0.996,4.208c-0.114,0.47-0.158,1.064-0.131,1.782
		c-1.382-0.611-2.5-1.553-3.352-2.828C82.696,56.983,82.27,55.564,82.27,54c0-1.403,0.346-2.696,1.037-3.88
		c0.691-1.184,1.629-2.122,2.813-2.813c1.184-0.691,2.478-1.037,3.88-1.037c1.402,0,2.696,0.346,3.88,1.037
		C95.065,47.998,96.002,48.935,96.694,50.12z"/>
	<path fill="#FFFFFF" d="M24.557,50.288c0.624-0.067,1.248-0.235,1.872-0.503c-0.45,0.658-0.993,1.218-1.631,1.681
		c0.007,0.094,0.01,0.235,0.01,0.423c0,0.872-0.128,1.743-0.382,2.612c-0.255,0.869-0.643,1.703-1.163,2.501
		c-0.52,0.799-1.139,1.505-1.857,2.119c-0.718,0.614-1.584,1.104-2.597,1.47c-1.013,0.366-2.097,0.549-3.251,0.549
		c-1.819,0-3.483-0.486-4.993-1.46c0.235,0.027,0.497,0.04,0.785,0.04c1.51,0,2.855-0.463,4.036-1.389
		c-0.705-0.013-1.335-0.23-1.892-0.649c-0.557-0.419-0.94-0.954-1.147-1.605c0.221,0.034,0.426,0.05,0.614,0.05
		c0.288,0,0.574-0.037,0.856-0.111c-0.752-0.154-1.374-0.528-1.867-1.122c-0.493-0.594-0.74-1.283-0.74-2.069v-0.04
		c0.456,0.255,0.946,0.393,1.47,0.413c-0.443-0.295-0.795-0.681-1.057-1.158s-0.393-0.993-0.393-1.55
		c0-0.59,0.147-1.138,0.443-1.641c0.812,1,1.8,1.8,2.964,2.401c1.164,0.601,2.411,0.935,3.739,1.002
		c-0.054-0.255-0.081-0.503-0.081-0.745c0-0.899,0.317-1.666,0.951-2.3c0.634-0.634,1.401-0.951,2.3-0.951
		c0.939,0,1.731,0.342,2.375,1.027c0.731-0.141,1.419-0.403,2.063-0.785C25.738,49.268,25.262,49.865,24.557,50.288L24.557,50.288z"
		/>
	<path fill="#FFFFFF" d="M55.278,51.106h2.587l-0.302,2.859h-2.285v8.294h-3.432v-8.294h-1.711v-2.859h1.711v-1.721
		c0-1.221,0.288-2.145,0.866-2.773c0.577-0.628,1.527-0.941,2.849-0.941h2.285v2.859h-1.429c-0.262,0-0.472,0.022-0.629,0.065
		c-0.158,0.044-0.272,0.122-0.342,0.237c-0.07,0.114-0.116,0.23-0.136,0.347c-0.02,0.117-0.03,0.283-0.03,0.498V51.106z"/>
	<path fill="#FFFFFF" d="M133.72,48.283v11.495c0,0.543-0.195,1.01-0.584,1.399c-0.389,0.389-0.856,0.584-1.399,0.584h-11.495
		c-0.544,0-1.01-0.195-1.399-0.584c-0.389-0.389-0.584-0.856-0.584-1.399V48.283c0-0.543,0.195-1.01,0.584-1.399
		c0.389-0.389,0.856-0.584,1.399-0.584h11.495c0.544,0,1.01,0.195,1.399,0.584C133.526,47.273,133.72,47.739,133.72,48.283z
		 M131.969,59.365v-6.523h-1.359c0.134,0.423,0.201,0.863,0.201,1.319c0,0.845-0.215,1.625-0.644,2.34
		c-0.43,0.714-1.013,1.28-1.751,1.696c-0.738,0.416-1.544,0.624-2.416,0.624c-1.322,0-2.453-0.455-3.392-1.364
		c-0.94-0.909-1.409-2.008-1.409-3.296c0-0.456,0.067-0.896,0.201-1.319h-1.419v6.523c0,0.175,0.059,0.32,0.176,0.438
		c0.117,0.118,0.263,0.176,0.438,0.176h10.76c0.168,0,0.312-0.059,0.433-0.176C131.909,59.685,131.969,59.54,131.969,59.365z
		 M126,57.01c0.859,0,1.592-0.294,2.199-0.881c0.607-0.587,0.911-1.297,0.911-2.129c0-0.832-0.304-1.542-0.911-2.129
		c-0.607-0.587-1.34-0.881-2.199-0.881c-0.852,0-1.582,0.294-2.189,0.881c-0.607,0.587-0.911,1.297-0.911,2.129
		c0,0.832,0.304,1.542,0.911,2.129C124.418,56.716,125.148,57.01,126,57.01L126,57.01z M131.969,50.376v-1.661
		c0-0.188-0.067-0.35-0.201-0.488c-0.134-0.138-0.299-0.206-0.493-0.206h-1.751c-0.195,0-0.359,0.069-0.493,0.206
		c-0.134,0.138-0.201,0.3-0.201,0.488v1.661c0,0.195,0.067,0.359,0.201,0.493c0.134,0.134,0.299,0.201,0.493,0.201h1.751
		c0.195,0,0.359-0.067,0.493-0.201C131.902,50.736,131.969,50.571,131.969,50.376z"/>
</g>
<g id="Guides">
</g>
</svg>
