<?xml version="1.0" encoding="utf-8"?>
<!-- Generator: Adobe Illustrator 17.1.0, SVG Export Plug-In . SVG Version: 6.00 Build 0)  -->
<!DOCTYPE svg PUBLIC "-//W3C//DTD SVG 1.1//EN" "http://www.w3.org/Graphics/SVG/1.1/DTD/svg11.dtd">
<svg version="1.1" xmlns="http://www.w3.org/2000/svg" xmlns:xlink="http://www.w3.org/1999/xlink" x="0px" y="0px"
	 viewBox="0 0 144 72" enable-background="new 0 0 144 72" xml:space="preserve">
<g id="Base">
</g>
<g id="Art">
	<path fill="#8E8E8E" d="M62.199,13.087c0,0.482-0.15,0.943-0.448,1.382c-0.299,0.439-0.671,0.814-1.116,1.126
		c-2.294,1.592-3.721,2.584-4.282,2.974c-0.061,0.043-0.191,0.136-0.389,0.279c-0.198,0.144-0.363,0.26-0.494,0.348
		c-0.131,0.088-0.29,0.188-0.476,0.297c-0.186,0.11-0.361,0.192-0.526,0.247c-0.165,0.055-0.317,0.082-0.458,0.082H54h-0.009
		c-0.14,0-0.293-0.027-0.458-0.082c-0.165-0.055-0.34-0.137-0.526-0.247c-0.186-0.11-0.345-0.209-0.476-0.297
		c-0.131-0.088-0.296-0.204-0.494-0.348c-0.198-0.143-0.328-0.236-0.389-0.279c-0.555-0.39-1.354-0.947-2.397-1.67
		c-1.043-0.723-1.669-1.158-1.876-1.304c-0.378-0.256-0.735-0.609-1.071-1.057c-0.336-0.448-0.503-0.865-0.503-1.249
		c0-0.476,0.127-0.872,0.38-1.19c0.253-0.317,0.614-0.476,1.084-0.476h13.47c0.396,0,0.74,0.143,1.029,0.43
		C62.054,12.34,62.199,12.685,62.199,13.087z M61.284,16.574c0.348-0.238,0.653-0.503,0.915-0.796v7.266
		c0,0.402-0.143,0.747-0.43,1.034c-0.287,0.287-0.631,0.43-1.034,0.43h-13.47c-0.403,0-0.747-0.144-1.034-0.43
		c-0.287-0.287-0.43-0.631-0.43-1.034v-7.266c0.268,0.299,0.577,0.564,0.924,0.796c2.208,1.501,3.724,2.553,4.548,3.157
		c0.348,0.256,0.63,0.456,0.846,0.599c0.216,0.143,0.505,0.29,0.865,0.439c0.36,0.15,0.695,0.224,1.007,0.224H54h0.009
		c0.311,0,0.647-0.075,1.007-0.224c0.36-0.149,0.648-0.296,0.865-0.439c0.217-0.143,0.499-0.343,0.846-0.599
		C57.764,18.98,59.283,17.928,61.284,16.574L61.284,16.574z"/>
	<path fill="#8E8E8E" d="M14.486,12.554v1.757c0,0.244-0.085,0.452-0.256,0.622c-0.171,0.171-0.378,0.256-0.622,0.256h-2.928
		c-0.244,0-0.451-0.085-0.622-0.256c-0.171-0.171-0.256-0.378-0.256-0.622v-1.757c0-0.244,0.085-0.451,0.256-0.622
		c0.171-0.171,0.378-0.256,0.622-0.256h2.928c0.244,0,0.451,0.086,0.622,0.256C14.401,12.102,14.486,12.31,14.486,12.554z
		 M14.486,17.239v1.757c0,0.244-0.085,0.452-0.256,0.622c-0.171,0.171-0.378,0.256-0.622,0.256h-2.928
		c-0.244,0-0.451-0.085-0.622-0.256c-0.171-0.171-0.256-0.378-0.256-0.622v-1.757c0-0.244,0.085-0.451,0.256-0.622
		c0.171-0.171,0.378-0.256,0.622-0.256h2.928c0.244,0,0.451,0.086,0.622,0.256C14.401,16.787,14.486,16.995,14.486,17.239z
		 M14.486,21.924v1.757c0,0.244-0.085,0.452-0.256,0.622c-0.171,0.171-0.378,0.256-0.622,0.256h-2.928
		c-0.244,0-0.451-0.085-0.622-0.256c-0.171-0.171-0.256-0.378-0.256-0.622v-1.757c0-0.244,0.085-0.451,0.256-0.622
		c0.171-0.171,0.378-0.256,0.622-0.256h2.928c0.244,0,0.451,0.086,0.622,0.256C14.401,21.472,14.486,21.68,14.486,21.924z
		 M20.343,12.554v1.757c0,0.244-0.085,0.452-0.256,0.622c-0.171,0.171-0.378,0.256-0.622,0.256h-2.928
		c-0.244,0-0.451-0.085-0.622-0.256c-0.171-0.171-0.256-0.378-0.256-0.622v-1.757c0-0.244,0.085-0.451,0.256-0.622
		c0.171-0.171,0.378-0.256,0.622-0.256h2.928c0.244,0,0.451,0.086,0.622,0.256C20.257,12.102,20.343,12.31,20.343,12.554z
		 M20.343,17.239v1.757c0,0.244-0.085,0.452-0.256,0.622c-0.171,0.171-0.378,0.256-0.622,0.256h-2.928
		c-0.244,0-0.451-0.085-0.622-0.256c-0.171-0.171-0.256-0.378-0.256-0.622v-1.757c0-0.244,0.085-0.451,0.256-0.622
		c0.171-0.171,0.378-0.256,0.622-0.256h2.928c0.244,0,0.451,0.086,0.622,0.256C20.257,16.787,20.343,16.995,20.343,17.239z
		 M20.343,21.924v1.757c0,0.244-0.085,0.452-0.256,0.622c-0.171,0.171-0.378,0.256-0.622,0.256h-2.928
		c-0.244,0-0.451-0.085-0.622-0.256c-0.171-0.171-0.256-0.378-0.256-0.622v-1.757c0-0.244,0.085-0.451,0.256-0.622
		c0.171-0.171,0.378-0.256,0.622-0.256h2.928c0.244,0,0.451,0.086,0.622,0.256C20.257,21.472,20.343,21.68,20.343,21.924z
		 M26.199,12.554v1.757c0,0.244-0.085,0.452-0.256,0.622c-0.171,0.171-0.378,0.256-0.622,0.256h-2.928
		c-0.244,0-0.452-0.085-0.622-0.256c-0.171-0.171-0.256-0.378-0.256-0.622v-1.757c0-0.244,0.085-0.451,0.256-0.622
		c0.171-0.171,0.378-0.256,0.622-0.256h2.928c0.244,0,0.451,0.086,0.622,0.256C26.113,12.102,26.199,12.31,26.199,12.554z
		 M26.199,17.239v1.757c0,0.244-0.085,0.452-0.256,0.622c-0.171,0.171-0.378,0.256-0.622,0.256h-2.928
		c-0.244,0-0.452-0.085-0.622-0.256c-0.171-0.171-0.256-0.378-0.256-0.622v-1.757c0-0.244,0.085-0.451,0.256-0.622
		c0.171-0.171,0.378-0.256,0.622-0.256h2.928c0.244,0,0.451,0.086,0.622,0.256C26.113,16.787,26.199,16.995,26.199,17.239z
		 M26.199,21.924v1.757c0,0.244-0.085,0.452-0.256,0.622c-0.171,0.171-0.378,0.256-0.622,0.256h-2.928
		c-0.244,0-0.452-0.085-0.622-0.256c-0.171-0.171-0.256-0.378-0.256-0.622v-1.757c0-0.244,0.085-0.451,0.256-0.622
		c0.171-0.171,0.378-0.256,0.622-0.256h2.928c0.244,0,0.451,0.086,0.622,0.256C26.113,21.472,26.199,21.68,26.199,21.924z"/>
	<path fill="#FFFFFF" d="M62.199,49.087c0,0.482-0.15,0.943-0.448,1.382c-0.299,0.439-0.671,0.814-1.116,1.126
		c-2.294,1.592-3.721,2.584-4.282,2.974c-0.061,0.043-0.191,0.136-0.389,0.279c-0.198,0.144-0.363,0.26-0.494,0.348
		c-0.131,0.088-0.29,0.188-0.476,0.297c-0.186,0.11-0.361,0.192-0.526,0.247c-0.165,0.055-0.317,0.082-0.458,0.082H54h-0.009
		c-0.14,0-0.293-0.027-0.458-0.082c-0.165-0.055-0.34-0.137-0.526-0.247c-0.186-0.11-0.345-0.209-0.476-0.297
		c-0.131-0.088-0.296-0.204-0.494-0.348c-0.198-0.143-0.328-0.236-0.389-0.279c-0.555-0.39-1.354-0.947-2.397-1.67
		c-1.043-0.723-1.669-1.158-1.876-1.304c-0.378-0.256-0.735-0.609-1.071-1.057c-0.336-0.448-0.503-0.865-0.503-1.249
		c0-0.476,0.127-0.872,0.38-1.19c0.253-0.317,0.614-0.476,1.084-0.476h13.47c0.396,0,0.74,0.143,1.029,0.43
		C62.054,48.34,62.199,48.685,62.199,49.087z M61.284,52.574c0.348-0.238,0.653-0.503,0.915-0.796v7.266
		c0,0.402-0.143,0.747-0.43,1.034c-0.287,0.287-0.631,0.43-1.034,0.43h-13.47c-0.403,0-0.747-0.144-1.034-0.43
		c-0.287-0.287-0.43-0.631-0.43-1.034v-7.266c0.268,0.299,0.577,0.564,0.924,0.796c2.208,1.501,3.724,2.553,4.548,3.157
		c0.348,0.256,0.63,0.456,0.846,0.599c0.216,0.143,0.505,0.29,0.865,0.439c0.36,0.15,0.695,0.224,1.007,0.224H54h0.009
		c0.311,0,0.647-0.075,1.007-0.224c0.36-0.149,0.648-0.296,0.865-0.439c0.217-0.143,0.499-0.343,0.846-0.599
		C57.764,54.98,59.283,53.928,61.284,52.574L61.284,52.574z"/>
	<path fill="#FFFFFF" d="M14.486,48.554v1.757c0,0.244-0.085,0.452-0.256,0.622c-0.171,0.171-0.378,0.256-0.622,0.256h-2.928
		c-0.244,0-0.451-0.085-0.622-0.256c-0.171-0.171-0.256-0.378-0.256-0.622v-1.757c0-0.244,0.085-0.451,0.256-0.622
		c0.171-0.171,0.378-0.256,0.622-0.256h2.928c0.244,0,0.451,0.086,0.622,0.256C14.401,48.102,14.486,48.31,14.486,48.554z
		 M14.486,53.239v1.757c0,0.244-0.085,0.452-0.256,0.622c-0.171,0.171-0.378,0.256-0.622,0.256h-2.928
		c-0.244,0-0.451-0.085-0.622-0.256c-0.171-0.171-0.256-0.378-0.256-0.622v-1.757c0-0.244,0.085-0.451,0.256-0.622
		c0.171-0.171,0.378-0.256,0.622-0.256h2.928c0.244,0,0.451,0.086,0.622,0.256C14.401,52.787,14.486,52.995,14.486,53.239z
		 M14.486,57.924v1.757c0,0.244-0.085,0.452-0.256,0.622c-0.171,0.171-0.378,0.256-0.622,0.256h-2.928
		c-0.244,0-0.451-0.085-0.622-0.256c-0.171-0.171-0.256-0.378-0.256-0.622v-1.757c0-0.244,0.085-0.451,0.256-0.622
		c0.171-0.171,0.378-0.256,0.622-0.256h2.928c0.244,0,0.451,0.086,0.622,0.256C14.401,57.472,14.486,57.68,14.486,57.924z
		 M20.343,48.554v1.757c0,0.244-0.085,0.452-0.256,0.622c-0.171,0.171-0.378,0.256-0.622,0.256h-2.928
		c-0.244,0-0.451-0.085-0.622-0.256c-0.171-0.171-0.256-0.378-0.256-0.622v-1.757c0-0.244,0.085-0.451,0.256-0.622
		c0.171-0.171,0.378-0.256,0.622-0.256h2.928c0.244,0,0.451,0.086,0.622,0.256C20.257,48.102,20.343,48.31,20.343,48.554z
		 M20.343,53.239v1.757c0,0.244-0.085,0.452-0.256,0.622c-0.171,0.171-0.378,0.256-0.622,0.256h-2.928
		c-0.244,0-0.451-0.085-0.622-0.256c-0.171-0.171-0.256-0.378-0.256-0.622v-1.757c0-0.244,0.085-0.451,0.256-0.622
		c0.171-0.171,0.378-0.256,0.622-0.256h2.928c0.244,0,0.451,0.086,0.622,0.256C20.257,52.787,20.343,52.995,20.343,53.239z
		 M20.343,57.924v1.757c0,0.244-0.085,0.452-0.256,0.622c-0.171,0.171-0.378,0.256-0.622,0.256h-2.928
		c-0.244,0-0.451-0.085-0.622-0.256c-0.171-0.171-0.256-0.378-0.256-0.622v-1.757c0-0.244,0.085-0.451,0.256-0.622
		c0.171-0.171,0.378-0.256,0.622-0.256h2.928c0.244,0,0.451,0.086,0.622,0.256C20.257,57.472,20.343,57.68,20.343,57.924z
		 M26.199,48.554v1.757c0,0.244-0.085,0.452-0.256,0.622c-0.171,0.171-0.378,0.256-0.622,0.256h-2.928
		c-0.244,0-0.452-0.085-0.622-0.256c-0.171-0.171-0.256-0.378-0.256-0.622v-1.757c0-0.244,0.085-0.451,0.256-0.622
		c0.171-0.171,0.378-0.256,0.622-0.256h2.928c0.244,0,0.451,0.086,0.622,0.256C26.113,48.102,26.199,48.31,26.199,48.554z
		 M26.199,53.239v1.757c0,0.244-0.085,0.452-0.256,0.622c-0.171,0.171-0.378,0.256-0.622,0.256h-2.928
		c-0.244,0-0.452-0.085-0.622-0.256c-0.171-0.171-0.256-0.378-0.256-0.622v-1.757c0-0.244,0.085-0.451,0.256-0.622
		c0.171-0.171,0.378-0.256,0.622-0.256h2.928c0.244,0,0.451,0.086,0.622,0.256C26.113,52.787,26.199,52.995,26.199,53.239z
		 M26.199,57.924v1.757c0,0.244-0.085,0.452-0.256,0.622c-0.171,0.171-0.378,0.256-0.622,0.256h-2.928
		c-0.244,0-0.452-0.085-0.622-0.256c-0.171-0.171-0.256-0.378-0.256-0.622v-1.757c0-0.244,0.085-0.451,0.256-0.622
		c0.171-0.171,0.378-0.256,0.622-0.256h2.928c0.244,0,0.451,0.086,0.622,0.256C26.113,57.472,26.199,57.68,26.199,57.924z"/>
	<path fill="#8E8E8E" d="M96.32,10.549v15.226c0,0.159-0.058,0.296-0.174,0.412c-0.116,0.116-0.253,0.174-0.412,0.174H84.022
		c-0.159,0-0.296-0.058-0.412-0.174c-0.116-0.116-0.174-0.253-0.174-0.412V10.549c0-0.159,0.058-0.296,0.174-0.412
		c0.116-0.116,0.253-0.174,0.412-0.174h11.713c0.159,0,0.296,0.058,0.412,0.174C96.262,10.253,96.32,10.39,96.32,10.549z
		 M91.635,25.19h3.514V11.134H84.608V25.19h3.514v-2.05c0-0.079,0.029-0.148,0.087-0.206c0.058-0.058,0.127-0.087,0.206-0.087h2.928
		c0.079,0,0.148,0.029,0.206,0.087c0.058,0.058,0.087,0.127,0.087,0.206V25.19z M86.95,12.598v0.586c0,0.08-0.029,0.148-0.087,0.206
		c-0.058,0.058-0.127,0.087-0.206,0.087h-0.586c-0.079,0-0.148-0.029-0.206-0.087c-0.058-0.058-0.087-0.126-0.087-0.206v-0.586
		c0-0.079,0.029-0.148,0.087-0.206c0.058-0.058,0.127-0.087,0.206-0.087h0.586c0.079,0,0.148,0.029,0.206,0.087
		C86.921,12.451,86.95,12.519,86.95,12.598z M86.95,14.941v0.585c0,0.08-0.029,0.148-0.087,0.206
		c-0.058,0.058-0.127,0.087-0.206,0.087h-0.586c-0.079,0-0.148-0.029-0.206-0.087c-0.058-0.058-0.087-0.126-0.087-0.206v-0.585
		c0-0.079,0.029-0.148,0.087-0.206c0.058-0.058,0.127-0.087,0.206-0.087h0.586c0.079,0,0.148,0.029,0.206,0.087
		C86.921,14.793,86.95,14.862,86.95,14.941z M86.95,17.284v0.586c0,0.079-0.029,0.148-0.087,0.206
		c-0.058,0.058-0.127,0.087-0.206,0.087h-0.586c-0.079,0-0.148-0.029-0.206-0.087c-0.058-0.058-0.087-0.127-0.087-0.206v-0.586
		c0-0.079,0.029-0.148,0.087-0.206c0.058-0.058,0.127-0.087,0.206-0.087h0.586c0.079,0,0.148,0.029,0.206,0.087
		C86.921,17.136,86.95,17.204,86.95,17.284z M86.95,19.626v0.586c0,0.08-0.029,0.148-0.087,0.206
		c-0.058,0.058-0.127,0.087-0.206,0.087h-0.586c-0.079,0-0.148-0.029-0.206-0.087c-0.058-0.058-0.087-0.126-0.087-0.206v-0.586
		c0-0.079,0.029-0.148,0.087-0.206c0.058-0.058,0.127-0.087,0.206-0.087h0.586c0.079,0,0.148,0.029,0.206,0.087
		C86.921,19.478,86.95,19.547,86.95,19.626z M86.95,21.969v0.586c0,0.08-0.029,0.148-0.087,0.206
		c-0.058,0.058-0.127,0.087-0.206,0.087h-0.586c-0.079,0-0.148-0.029-0.206-0.087c-0.058-0.058-0.087-0.126-0.087-0.206v-0.586
		c0-0.079,0.029-0.148,0.087-0.206c0.058-0.058,0.127-0.087,0.206-0.087h0.586c0.079,0,0.148,0.029,0.206,0.087
		C86.921,21.821,86.95,21.889,86.95,21.969z M89.293,12.598v0.586c0,0.08-0.029,0.148-0.087,0.206
		c-0.058,0.058-0.127,0.087-0.206,0.087h-0.586c-0.079,0-0.148-0.029-0.206-0.087c-0.058-0.058-0.087-0.126-0.087-0.206v-0.586
		c0-0.079,0.029-0.148,0.087-0.206c0.058-0.058,0.127-0.087,0.206-0.087H89c0.079,0,0.148,0.029,0.206,0.087
		C89.264,12.451,89.293,12.519,89.293,12.598z M89.293,14.941v0.585c0,0.08-0.029,0.148-0.087,0.206
		c-0.058,0.058-0.127,0.087-0.206,0.087h-0.586c-0.079,0-0.148-0.029-0.206-0.087c-0.058-0.058-0.087-0.126-0.087-0.206v-0.585
		c0-0.079,0.029-0.148,0.087-0.206c0.058-0.058,0.127-0.087,0.206-0.087H89c0.079,0,0.148,0.029,0.206,0.087
		C89.264,14.793,89.293,14.862,89.293,14.941z M89.293,17.284v0.586c0,0.079-0.029,0.148-0.087,0.206
		c-0.058,0.058-0.127,0.087-0.206,0.087h-0.586c-0.079,0-0.148-0.029-0.206-0.087c-0.058-0.058-0.087-0.127-0.087-0.206v-0.586
		c0-0.079,0.029-0.148,0.087-0.206c0.058-0.058,0.127-0.087,0.206-0.087H89c0.079,0,0.148,0.029,0.206,0.087
		C89.264,17.136,89.293,17.204,89.293,17.284z M89.293,19.626v0.586c0,0.08-0.029,0.148-0.087,0.206
		c-0.058,0.058-0.127,0.087-0.206,0.087h-0.586c-0.079,0-0.148-0.029-0.206-0.087c-0.058-0.058-0.087-0.126-0.087-0.206v-0.586
		c0-0.079,0.029-0.148,0.087-0.206c0.058-0.058,0.127-0.087,0.206-0.087H89c0.079,0,0.148,0.029,0.206,0.087
		C89.264,19.478,89.293,19.547,89.293,19.626z M91.635,12.598v0.586c0,0.08-0.029,0.148-0.087,0.206
		c-0.058,0.058-0.127,0.087-0.206,0.087h-0.586c-0.079,0-0.148-0.029-0.206-0.087c-0.058-0.058-0.087-0.126-0.087-0.206v-0.586
		c0-0.079,0.029-0.148,0.087-0.206c0.058-0.058,0.127-0.087,0.206-0.087h0.586c0.079,0,0.148,0.029,0.206,0.087
		C91.606,12.451,91.635,12.519,91.635,12.598z M91.635,14.941v0.585c0,0.08-0.029,0.148-0.087,0.206
		c-0.058,0.058-0.127,0.087-0.206,0.087h-0.586c-0.079,0-0.148-0.029-0.206-0.087c-0.058-0.058-0.087-0.126-0.087-0.206v-0.585
		c0-0.079,0.029-0.148,0.087-0.206c0.058-0.058,0.127-0.087,0.206-0.087h0.586c0.079,0,0.148,0.029,0.206,0.087
		C91.606,14.793,91.635,14.862,91.635,14.941z M91.635,17.284v0.586c0,0.079-0.029,0.148-0.087,0.206
		c-0.058,0.058-0.127,0.087-0.206,0.087h-0.586c-0.079,0-0.148-0.029-0.206-0.087c-0.058-0.058-0.087-0.127-0.087-0.206v-0.586
		c0-0.079,0.029-0.148,0.087-0.206c0.058-0.058,0.127-0.087,0.206-0.087h0.586c0.079,0,0.148,0.029,0.206,0.087
		C91.606,17.136,91.635,17.204,91.635,17.284z M91.635,19.626v0.586c0,0.08-0.029,0.148-0.087,0.206
		c-0.058,0.058-0.127,0.087-0.206,0.087h-0.586c-0.079,0-0.148-0.029-0.206-0.087c-0.058-0.058-0.087-0.126-0.087-0.206v-0.586
		c0-0.079,0.029-0.148,0.087-0.206c0.058-0.058,0.127-0.087,0.206-0.087h0.586c0.079,0,0.148,0.029,0.206,0.087
		C91.606,19.478,91.635,19.547,91.635,19.626z M93.978,12.598v0.586c0,0.08-0.029,0.148-0.087,0.206
		c-0.058,0.058-0.127,0.087-0.206,0.087h-0.586c-0.079,0-0.148-0.029-0.206-0.087c-0.058-0.058-0.087-0.126-0.087-0.206v-0.586
		c0-0.079,0.029-0.148,0.087-0.206c0.058-0.058,0.127-0.087,0.206-0.087h0.586c0.079,0,0.148,0.029,0.206,0.087
		C93.949,12.451,93.978,12.519,93.978,12.598z M93.978,14.941v0.585c0,0.08-0.029,0.148-0.087,0.206
		c-0.058,0.058-0.127,0.087-0.206,0.087h-0.586c-0.079,0-0.148-0.029-0.206-0.087c-0.058-0.058-0.087-0.126-0.087-0.206v-0.585
		c0-0.079,0.029-0.148,0.087-0.206c0.058-0.058,0.127-0.087,0.206-0.087h0.586c0.079,0,0.148,0.029,0.206,0.087
		C93.949,14.793,93.978,14.862,93.978,14.941z M93.978,17.284v0.586c0,0.079-0.029,0.148-0.087,0.206
		c-0.058,0.058-0.127,0.087-0.206,0.087h-0.586c-0.079,0-0.148-0.029-0.206-0.087c-0.058-0.058-0.087-0.127-0.087-0.206v-0.586
		c0-0.079,0.029-0.148,0.087-0.206c0.058-0.058,0.127-0.087,0.206-0.087h0.586c0.079,0,0.148,0.029,0.206,0.087
		C93.949,17.136,93.978,17.204,93.978,17.284z M93.978,19.626v0.586c0,0.08-0.029,0.148-0.087,0.206
		c-0.058,0.058-0.127,0.087-0.206,0.087h-0.586c-0.079,0-0.148-0.029-0.206-0.087c-0.058-0.058-0.087-0.126-0.087-0.206v-0.586
		c0-0.079,0.029-0.148,0.087-0.206c0.058-0.058,0.127-0.087,0.206-0.087h0.586c0.079,0,0.148,0.029,0.206,0.087
		C93.949,19.478,93.978,19.547,93.978,19.626z M93.978,21.969v0.586c0,0.08-0.029,0.148-0.087,0.206
		c-0.058,0.058-0.127,0.087-0.206,0.087h-0.586c-0.079,0-0.148-0.029-0.206-0.087c-0.058-0.058-0.087-0.126-0.087-0.206v-0.586
		c0-0.079,0.029-0.148,0.087-0.206c0.058-0.058,0.127-0.087,0.206-0.087h0.586c0.079,0,0.148,0.029,0.206,0.087
		C93.949,21.821,93.978,21.889,93.978,21.969z"/>
	<path fill="#FFFFFF" d="M96.32,46.549v15.226c0,0.159-0.058,0.296-0.174,0.412c-0.116,0.116-0.253,0.174-0.412,0.174H84.022
		c-0.159,0-0.296-0.058-0.412-0.174c-0.116-0.116-0.174-0.253-0.174-0.412V46.549c0-0.159,0.058-0.296,0.174-0.412
		c0.116-0.116,0.253-0.174,0.412-0.174h11.713c0.159,0,0.296,0.058,0.412,0.174C96.262,46.253,96.32,46.39,96.32,46.549z
		 M91.635,61.19h3.514V47.134H84.608V61.19h3.514v-2.05c0-0.079,0.029-0.148,0.087-0.206c0.058-0.058,0.127-0.087,0.206-0.087h2.928
		c0.079,0,0.148,0.029,0.206,0.087c0.058,0.058,0.087,0.127,0.087,0.206V61.19z M86.95,48.598v0.586c0,0.08-0.029,0.148-0.087,0.206
		c-0.058,0.058-0.127,0.087-0.206,0.087h-0.586c-0.079,0-0.148-0.029-0.206-0.087c-0.058-0.058-0.087-0.126-0.087-0.206v-0.586
		c0-0.079,0.029-0.148,0.087-0.206c0.058-0.058,0.127-0.087,0.206-0.087h0.586c0.079,0,0.148,0.029,0.206,0.087
		C86.921,48.451,86.95,48.519,86.95,48.598z M86.95,50.941v0.585c0,0.08-0.029,0.148-0.087,0.206
		c-0.058,0.058-0.127,0.087-0.206,0.087h-0.586c-0.079,0-0.148-0.029-0.206-0.087c-0.058-0.058-0.087-0.126-0.087-0.206v-0.585
		c0-0.079,0.029-0.148,0.087-0.206c0.058-0.058,0.127-0.087,0.206-0.087h0.586c0.079,0,0.148,0.029,0.206,0.087
		C86.921,50.793,86.95,50.862,86.95,50.941z M86.95,53.284v0.586c0,0.079-0.029,0.148-0.087,0.206
		c-0.058,0.058-0.127,0.087-0.206,0.087h-0.586c-0.079,0-0.148-0.029-0.206-0.087c-0.058-0.058-0.087-0.127-0.087-0.206v-0.586
		c0-0.079,0.029-0.148,0.087-0.206c0.058-0.058,0.127-0.087,0.206-0.087h0.586c0.079,0,0.148,0.029,0.206,0.087
		C86.921,53.136,86.95,53.204,86.95,53.284z M86.95,55.626v0.586c0,0.08-0.029,0.148-0.087,0.206
		c-0.058,0.058-0.127,0.087-0.206,0.087h-0.586c-0.079,0-0.148-0.029-0.206-0.087c-0.058-0.058-0.087-0.126-0.087-0.206v-0.586
		c0-0.079,0.029-0.148,0.087-0.206c0.058-0.058,0.127-0.087,0.206-0.087h0.586c0.079,0,0.148,0.029,0.206,0.087
		C86.921,55.478,86.95,55.547,86.95,55.626z M86.95,57.969v0.586c0,0.08-0.029,0.148-0.087,0.206
		c-0.058,0.058-0.127,0.087-0.206,0.087h-0.586c-0.079,0-0.148-0.029-0.206-0.087c-0.058-0.058-0.087-0.126-0.087-0.206v-0.586
		c0-0.079,0.029-0.148,0.087-0.206c0.058-0.058,0.127-0.087,0.206-0.087h0.586c0.079,0,0.148,0.029,0.206,0.087
		C86.921,57.821,86.95,57.889,86.95,57.969z M89.293,48.598v0.586c0,0.08-0.029,0.148-0.087,0.206
		c-0.058,0.058-0.127,0.087-0.206,0.087h-0.586c-0.079,0-0.148-0.029-0.206-0.087c-0.058-0.058-0.087-0.126-0.087-0.206v-0.586
		c0-0.079,0.029-0.148,0.087-0.206c0.058-0.058,0.127-0.087,0.206-0.087H89c0.079,0,0.148,0.029,0.206,0.087
		C89.264,48.451,89.293,48.519,89.293,48.598z M89.293,50.941v0.585c0,0.08-0.029,0.148-0.087,0.206
		c-0.058,0.058-0.127,0.087-0.206,0.087h-0.586c-0.079,0-0.148-0.029-0.206-0.087c-0.058-0.058-0.087-0.126-0.087-0.206v-0.585
		c0-0.079,0.029-0.148,0.087-0.206c0.058-0.058,0.127-0.087,0.206-0.087H89c0.079,0,0.148,0.029,0.206,0.087
		C89.264,50.793,89.293,50.862,89.293,50.941z M89.293,53.284v0.586c0,0.079-0.029,0.148-0.087,0.206
		c-0.058,0.058-0.127,0.087-0.206,0.087h-0.586c-0.079,0-0.148-0.029-0.206-0.087c-0.058-0.058-0.087-0.127-0.087-0.206v-0.586
		c0-0.079,0.029-0.148,0.087-0.206c0.058-0.058,0.127-0.087,0.206-0.087H89c0.079,0,0.148,0.029,0.206,0.087
		C89.264,53.136,89.293,53.204,89.293,53.284z M89.293,55.626v0.586c0,0.08-0.029,0.148-0.087,0.206
		c-0.058,0.058-0.127,0.087-0.206,0.087h-0.586c-0.079,0-0.148-0.029-0.206-0.087c-0.058-0.058-0.087-0.126-0.087-0.206v-0.586
		c0-0.079,0.029-0.148,0.087-0.206c0.058-0.058,0.127-0.087,0.206-0.087H89c0.079,0,0.148,0.029,0.206,0.087
		C89.264,55.478,89.293,55.547,89.293,55.626z M91.635,48.598v0.586c0,0.08-0.029,0.148-0.087,0.206
		c-0.058,0.058-0.127,0.087-0.206,0.087h-0.586c-0.079,0-0.148-0.029-0.206-0.087c-0.058-0.058-0.087-0.126-0.087-0.206v-0.586
		c0-0.079,0.029-0.148,0.087-0.206c0.058-0.058,0.127-0.087,0.206-0.087h0.586c0.079,0,0.148,0.029,0.206,0.087
		C91.606,48.451,91.635,48.519,91.635,48.598z M91.635,50.941v0.585c0,0.08-0.029,0.148-0.087,0.206
		c-0.058,0.058-0.127,0.087-0.206,0.087h-0.586c-0.079,0-0.148-0.029-0.206-0.087c-0.058-0.058-0.087-0.126-0.087-0.206v-0.585
		c0-0.079,0.029-0.148,0.087-0.206c0.058-0.058,0.127-0.087,0.206-0.087h0.586c0.079,0,0.148,0.029,0.206,0.087
		C91.606,50.793,91.635,50.862,91.635,50.941z M91.635,53.284v0.586c0,0.079-0.029,0.148-0.087,0.206
		c-0.058,0.058-0.127,0.087-0.206,0.087h-0.586c-0.079,0-0.148-0.029-0.206-0.087c-0.058-0.058-0.087-0.127-0.087-0.206v-0.586
		c0-0.079,0.029-0.148,0.087-0.206c0.058-0.058,0.127-0.087,0.206-0.087h0.586c0.079,0,0.148,0.029,0.206,0.087
		C91.606,53.136,91.635,53.204,91.635,53.284z M91.635,55.626v0.586c0,0.08-0.029,0.148-0.087,0.206
		c-0.058,0.058-0.127,0.087-0.206,0.087h-0.586c-0.079,0-0.148-0.029-0.206-0.087c-0.058-0.058-0.087-0.126-0.087-0.206v-0.586
		c0-0.079,0.029-0.148,0.087-0.206c0.058-0.058,0.127-0.087,0.206-0.087h0.586c0.079,0,0.148,0.029,0.206,0.087
		C91.606,55.478,91.635,55.547,91.635,55.626z M93.978,48.598v0.586c0,0.08-0.029,0.148-0.087,0.206
		c-0.058,0.058-0.127,0.087-0.206,0.087h-0.586c-0.079,0-0.148-0.029-0.206-0.087c-0.058-0.058-0.087-0.126-0.087-0.206v-0.586
		c0-0.079,0.029-0.148,0.087-0.206c0.058-0.058,0.127-0.087,0.206-0.087h0.586c0.079,0,0.148,0.029,0.206,0.087
		C93.949,48.451,93.978,48.519,93.978,48.598z M93.978,50.941v0.585c0,0.08-0.029,0.148-0.087,0.206
		c-0.058,0.058-0.127,0.087-0.206,0.087h-0.586c-0.079,0-0.148-0.029-0.206-0.087c-0.058-0.058-0.087-0.126-0.087-0.206v-0.585
		c0-0.079,0.029-0.148,0.087-0.206c0.058-0.058,0.127-0.087,0.206-0.087h0.586c0.079,0,0.148,0.029,0.206,0.087
		C93.949,50.793,93.978,50.862,93.978,50.941z M93.978,53.284v0.586c0,0.079-0.029,0.148-0.087,0.206
		c-0.058,0.058-0.127,0.087-0.206,0.087h-0.586c-0.079,0-0.148-0.029-0.206-0.087c-0.058-0.058-0.087-0.127-0.087-0.206v-0.586
		c0-0.079,0.029-0.148,0.087-0.206c0.058-0.058,0.127-0.087,0.206-0.087h0.586c0.079,0,0.148,0.029,0.206,0.087
		C93.949,53.136,93.978,53.204,93.978,53.284z M93.978,55.626v0.586c0,0.08-0.029,0.148-0.087,0.206
		c-0.058,0.058-0.127,0.087-0.206,0.087h-0.586c-0.079,0-0.148-0.029-0.206-0.087c-0.058-0.058-0.087-0.126-0.087-0.206v-0.586
		c0-0.079,0.029-0.148,0.087-0.206c0.058-0.058,0.127-0.087,0.206-0.087h0.586c0.079,0,0.148,0.029,0.206,0.087
		C93.949,55.478,93.978,55.547,93.978,55.626z M93.978,57.969v0.586c0,0.08-0.029,0.148-0.087,0.206
		c-0.058,0.058-0.127,0.087-0.206,0.087h-0.586c-0.079,0-0.148-0.029-0.206-0.087c-0.058-0.058-0.087-0.126-0.087-0.206v-0.586
		c0-0.079,0.029-0.148,0.087-0.206c0.058-0.058,0.127-0.087,0.206-0.087h0.586c0.079,0,0.148,0.029,0.206,0.087
		C93.949,57.821,93.978,57.889,93.978,57.969z"/>
</g>
<g id="Guides">
</g>
</svg>
