<?xml version="1.0" encoding="utf-8"?>
<!-- Generator: Adobe Illustrator 17.1.0, SVG Export Plug-In . SVG Version: 6.00 Build 0)  -->
<!DOCTYPE svg PUBLIC "-//W3C//DTD SVG 1.1//EN" "http://www.w3.org/Graphics/SVG/1.1/DTD/svg11.dtd">
<svg version="1.1" xmlns="http://www.w3.org/2000/svg" xmlns:xlink="http://www.w3.org/1999/xlink" x="0px" y="0px"
	 viewBox="0 0 50 60" enable-background="new 0 0 50 60" xml:space="preserve">
<g id="Base">
</g>
<g id="Art">
	<path fill="#FFFFFF" d="M0,0v60h49.998H50V0H0z"/>
	<rect x="0.993" y="39.634" fill="#00ADEE" width="48.013" height="19.184"/>
	<g>
		<g>
			<path fill="#00ADEE" d="M24.998,5.62c9.873,0,18.627,4.861,24.009,12.316V1.183H0.995V17.93
				C6.372,10.481,15.127,5.62,24.998,5.62z"/>
			<path fill="#00ADEE" d="M24.998,6.804c-9.996,0-18.82,5.108-24.003,12.851V38.45h48.011V19.661
				C43.824,11.915,34.996,6.804,24.998,6.804z"/>
			<path fill="#FFFFFF" d="M24.998,6.804c9.999,0,18.827,5.111,24.009,12.857v-1.724C43.625,10.482,34.87,5.62,24.998,5.62
				c-9.87,0-18.626,4.86-24.003,12.31v1.724C6.177,11.912,15.002,6.804,24.998,6.804z"/>
		</g>
		<g>
			<path fill="#FFFFFF" d="M5.724,26.525c-0.101,0.198-0.176,0.382-0.237,0.561c-1.93,0.577-3.215,0.065-3.301,0.027
				c-0.192-0.08-0.414,0.009-0.495,0.201c-0.083,0.193,0.005,0.412,0.198,0.495c0.091,0.041,1.428,0.588,3.424,0.106
				c0,0.025-0.005,0.053-0.005,0.078c0,0.562,0.236,0.944,0.546,1.145c0.867,0.566,2.775,0.083,5.545-2.744
				c-0.179,0.511-0.339,1.07-0.442,1.649c-0.004,0.025-0.006,0.051-0.006,0.074c0,0.159,0.093,0.303,0.242,0.362
				c0.299,0.122,0.471-0.127,0.623-0.344l0.384-0.572c0.333-0.5,1.08-1.626,1.587-2.214c-0.062,0.323-0.124,0.689-0.124,1.034
				c0,0.467,0.113,0.896,0.491,1.117c0.317,0.184,0.824,0.249,1.925-0.407c0.092,0.255,0.279,0.375,0.386,0.426
				c0.703,0.326,2.028-0.379,3.411-1.701c-0.187,0.418-0.329,0.767-0.366,0.913c-0.009,0.04-0.013,0.079-0.013,0.114
				c0,0.176,0.106,0.302,0.229,0.358c0.304,0.134,0.497-0.133,0.65-0.35l0.417-0.602c0.346-0.51,1.159-1.706,1.634-2.203
				c0.141,0.344,0.391,0.778,0.842,1.031c-0.131,0.297-0.197,0.553-0.197,0.767c0,0.264,0.099,0.464,0.297,0.598
				c0.355,0.242,0.895,0.109,1.458-0.197c-1.796,1.782-2.622,3.558-2.648,4.346c-0.001,0.015-0.001,0.03-0.001,0.045
				c0,0.439,0.216,0.616,0.349,0.681c0.273,0.137,0.605,0.052,0.992-0.254c1.353-1.075,2.338-3.624,2.841-5.184
				c0.675-0.55,1.465-1.085,2.372-1.575c-0.295,0.517-0.461,1.005-0.461,1.401c0,0.142,0.022,0.274,0.063,0.39
				c0.104,0.277,0.328,0.454,0.612,0.483c0.624,0.068,1.487-0.586,2.505-1.842c-0.087,0.25-0.173,0.492-0.259,0.73
				c-2.827,2.227-4.098,4.609-4.26,5.9c-0.015,0.105-0.022,0.202-0.022,0.292c0,0.515,0.208,0.753,0.398,0.862
				c0.215,0.122,0.581,0.181,1.118-0.23c0.598-0.457,2.024-2.691,3.405-6.374c1.834-1.408,4.347-2.756,7.69-3.68
				c0.167-0.047,0.279-0.199,0.279-0.367c0-0.032-0.006-0.067-0.014-0.099c-0.056-0.203-0.265-0.32-0.469-0.265
				c-2.919,0.809-5.232,1.94-7.039,3.165c0.215-0.639,0.43-1.315,0.638-2.026c0.01-0.035,0.015-0.07,0.015-0.107
				c0-0.145-0.085-0.283-0.223-0.345c-0.172-0.077-0.374-0.016-0.474,0.142c-1.884,2.958-2.951,3.495-3.186,3.491
				c-0.014-0.026-0.023-0.062-0.023-0.116c0-0.337,0.289-1.18,1.221-2.168c0.066-0.072,0.104-0.165,0.104-0.26
				c0-0.075-0.025-0.151-0.07-0.216c-0.103-0.146-0.294-0.202-0.458-0.133c-1.189,0.503-2.214,1.099-3.106,1.73
				c0.009-0.036,0.017-0.064,0.019-0.076c0.007-0.031,0.014-0.061,0.014-0.092c0-0.138-0.079-0.269-0.206-0.334
				c-0.008-0.003-0.013-0.003-0.02-0.006c0.26-0.205,0.528-0.43,0.811-0.69c0.297-0.277,0.374-0.528,0.374-0.714
				c0-0.082-0.015-0.149-0.032-0.202c-0.087-0.268-0.335-0.444-0.675-0.485c-0.836-0.098-2.161,0.611-3.348,2.358
				c-0.405-0.217-0.563-0.745-0.637-0.987l-0.03-0.096c-0.049-0.159-0.193-0.258-0.361-0.257c-0.256,0.003-0.532,0.18-0.963,0.686
				c0.006-0.012,0.012-0.025,0.019-0.035c0.024-0.053,0.035-0.109,0.035-0.164c0-0.129-0.066-0.253-0.182-0.324
				c-0.168-0.101-0.384-0.058-0.499,0.098c-2.11,2.841-3.957,3.631-4.246,3.487c-0.002-0.009-0.009-0.029-0.009-0.078
				c0-0.032,0.006-0.079,0.015-0.134c0.472-0.337,1.028-0.778,1.688-1.351c0.611-0.531,0.752-0.96,0.752-1.243
				c0-0.129-0.03-0.227-0.056-0.291c-0.125-0.293-0.427-0.455-0.791-0.423c-0.783,0.068-1.762,0.984-2.254,2.849
				c-1.223,0.835-1.553,0.708-1.598,0.682c-0.166-0.096-0.153-0.62,0.037-1.556c0.083-0.416,0.121-0.605,0.028-0.778
				c-0.091-0.17-0.25-0.271-0.435-0.279c-0.397-0.019-0.848,0.397-1.784,1.72c0.371-0.882,0.733-1.487,0.74-1.496
				c0.037-0.062,0.055-0.129,0.055-0.196c0-0.119-0.055-0.236-0.16-0.31c-0.16-0.115-0.384-0.084-0.512,0.07
				c-3.328,4.062-5.59,4.906-6.236,4.486c-0.138-0.091-0.205-0.267-0.205-0.502c0-0.097,0.016-0.207,0.039-0.324
				c1.246-0.444,2.686-1.295,4.212-2.859c0.9-0.92,1.383-1.783,1.383-2.439c0-0.148-0.024-0.284-0.073-0.408
				c-0.134-0.34-0.441-0.548-0.841-0.568C9.588,21.349,7.561,22.909,5.724,26.525z M10.748,22.161
				c0.14,0.007,0.163,0.062,0.174,0.088c0.011,0.034,0.02,0.08,0.02,0.132c0,0.329-0.289,1.01-1.169,1.911
				c-1.18,1.208-2.295,1.959-3.291,2.414C8.232,23.338,10.02,22.127,10.748,22.161z M18.21,24.147
				c0.124-0.066,0.212-0.08,0.263-0.08c-0.019,0.09-0.116,0.308-0.486,0.632c-0.275,0.238-0.53,0.452-0.763,0.642
				C17.61,24.532,18.048,24.231,18.21,24.147z M26.608,22.845c0.138-0.032,0.233-0.033,0.294-0.025
				c-0.02,0.026-0.042,0.055-0.083,0.091c-0.869,0.806-1.635,1.32-2.241,1.519C25.527,23.199,26.349,22.907,26.608,22.845z
				 M25.466,24.868c-0.733,0.648-1.4,0.947-1.636,0.948c0.003-0.071,0.035-0.236,0.182-0.542
				C24.444,25.29,24.927,25.157,25.466,24.868z M25.173,26.963c-0.515,1.324-1.245,2.81-2.124,3.506
				c-0.043,0.034-0.08,0.061-0.111,0.083C22.977,30.006,23.647,28.535,25.173,26.963z M27.67,31.657
				c0-0.174,0.039-0.453,0.181-0.853c0.347-0.992,1.218-2.403,2.759-3.848c-1.16,2.783-2.245,4.428-2.643,4.737
				c-0.13,0.098-0.221,0.141-0.27,0.156C27.682,31.813,27.67,31.757,27.67,31.657z"/>
			<path fill="#FFFFFF" d="M38.508,13.718c-0.235,0-0.443,0.142-0.53,0.361c0,0-2.078,5.33-2.317,5.939
				c-0.652,0.036-6.336,0.336-6.336,0.336c-0.301,0.016-0.538,0.267-0.538,0.566c0,0.009,0.002,0.02,0.002,0.03
				c0.016,0.312,0.282,0.551,0.597,0.537l6.701-0.355c0.221-0.011,0.417-0.153,0.499-0.36c0,0,1.269-3.26,1.92-4.927
				c0.648,1.664,1.911,4.908,1.911,4.908c0.08,0.207,0.274,0.346,0.494,0.36c0,0,3.46,0.198,5.229,0.301
				c-1.364,1.132-4.039,3.356-4.039,3.356c-0.133,0.109-0.207,0.268-0.207,0.435c0,0.048,0.006,0.095,0.017,0.14
				c0,0,0.859,3.357,1.301,5.078c-1.49-0.96-4.392-2.833-4.392-2.833c-0.185-0.121-0.426-0.121-0.612-0.003
				c0,0-2.934,1.869-4.454,2.835c0.464-1.671,1.296-4.68,1.296-4.68c0.011-0.049,0.019-0.102,0.019-0.151
				c0-0.249-0.164-0.476-0.416-0.546c-0.301-0.083-0.615,0.094-0.698,0.396l-1.686,6.1c-0.062,0.224,0.02,0.467,0.209,0.606
				c0.189,0.139,0.445,0.146,0.643,0.022c0,0,4.838-3.08,5.388-3.43c0.545,0.353,5.303,3.421,5.303,3.421
				c0.197,0.126,0.448,0.121,0.639-0.016c0.149-0.109,0.236-0.28,0.236-0.46c0-0.047-0.008-0.096-0.02-0.141
				c0,0-1.413-5.509-1.571-6.132c0.492-0.41,4.87-4.046,4.87-4.046c0.131-0.11,0.205-0.27,0.205-0.435
				c0-0.061-0.01-0.119-0.03-0.177c-0.071-0.221-0.272-0.375-0.505-0.388c0,0-5.649-0.324-6.3-0.362
				c-0.238-0.606-2.306-5.922-2.306-5.922C38.951,13.861,38.74,13.718,38.508,13.718L38.508,13.718z"/>
		</g>
	</g>
	<g>
		<g>
			<g>
				<path fill="#FFFFFF" d="M3.069,47.991v-5.994h3.089v0.664H3.833v1.926h2.159v0.664H3.833v2.076h2.374v0.664H3.069z"/>
				<path fill="#FFFFFF" d="M11.279,41.997v5.994h-1.046l-2.366-5.197H7.85v5.197H7.169v-5.994h1.079l2.333,5.131h0.017v-5.131
					H11.279z"/>
				<path fill="#FFFFFF" d="M12.345,47.991v-5.994h3.088v0.664h-2.325v1.926h2.158v0.664h-2.158v2.076h2.374v0.664H12.345z"/>
				<path fill="#FFFFFF" d="M17.171,45.235v2.756h-0.764v-5.994h2.067c1.063,0,1.436,0.747,1.436,1.494
					c0,0.706-0.39,1.246-1.096,1.37v0.017c0.689,0.108,0.938,0.34,0.98,1.544c0.008,0.257,0.091,1.195,0.207,1.569h-0.797
					c-0.216-0.415-0.166-1.195-0.233-1.993c-0.058-0.73-0.647-0.763-0.905-0.763H17.171z M17.171,44.571h1.146
					c0.548,0,0.814-0.473,0.814-0.996c0-0.432-0.216-0.913-0.805-0.913h-1.154V44.571z"/>
				<path fill="#FFFFFF" d="M23.614,43.6c0-0.706-0.29-1.088-1.062-1.088c-0.241,0-1.104,0.042-1.104,1.295v2.026
					c0,1.311,0.382,1.643,1.104,1.643c0.548,0,0.913-0.149,1.071-0.266v-1.793h-1.104v-0.664h1.868v2.914
					c-0.49,0.266-1.063,0.448-1.835,0.448c-1.27,0-1.884-0.656-1.884-2.316v-1.968c0-1.195,0.614-1.959,1.884-1.959
					c1.295,0,1.909,0.473,1.859,1.727H23.614z"/>
				<path fill="#FFFFFF" d="M28.053,41.997h0.772l-1.636,3.711v2.283h-0.764v-2.283l-1.611-3.711h0.855l1.171,2.897L28.053,41.997z"
					/>
			</g>
			<g>
				<path fill="#FFFFFF" d="M31.436,46.195v0.174c0,0.813,0.515,1.071,1.005,1.071c0.606,0,1.071-0.257,1.071-0.971
					c0-1.328-2.69-1.179-2.69-2.981c0-1.063,0.756-1.627,1.76-1.627c1.096,0,1.71,0.531,1.66,1.751h-0.797
					c0.008-0.656-0.199-1.087-0.922-1.087c-0.457,0-0.921,0.232-0.921,0.88c0,1.32,2.69,1.129,2.69,3.03
					c0,1.262-0.872,1.668-1.86,1.668c-1.768,0.017-1.768-1.336-1.752-1.909H31.436z"/>
				<path fill="#FFFFFF" d="M38.599,41.986v0.664h-1.577v5.33h-0.764v-5.33H34.68v-0.664H38.599z"/>
				<path fill="#FFFFFF" d="M39.885,41.986h0.971l1.951,5.994h-0.855l-0.432-1.428h-2.316l-0.448,1.428h-0.772L39.885,41.986z
					 M40.35,42.692h-0.017l-0.938,3.196h1.918L40.35,42.692z"/>
				<path fill="#FFFFFF" d="M44.149,45.224v2.756h-0.764v-5.994h2.067c1.062,0,1.436,0.747,1.436,1.494
					c0,0.706-0.39,1.245-1.096,1.37v0.016c0.689,0.108,0.938,0.34,0.979,1.544c0.008,0.258,0.091,1.196,0.208,1.569h-0.797
					c-0.216-0.415-0.166-1.195-0.232-1.992c-0.058-0.731-0.648-0.764-0.905-0.764H44.149z M44.149,44.56h1.146
					c0.548,0,0.814-0.473,0.814-0.996c0-0.432-0.216-0.913-0.805-0.913h-1.154V44.56z"/>
			</g>
		</g>
		<g>
			<path fill="#FFFFFF" d="M3.065,56.378v-6.001h1.779c0.806,0,1.671,0.299,1.671,1.712c0,1.363-1.064,1.646-1.679,1.646H3.83v2.643
				H3.065z M3.83,53.07h0.84c0.316,0,1.064-0.083,1.064-1.023c0-0.914-0.682-1.005-0.848-1.005H3.83V53.07z"/>
			<path fill="#FFFFFF" d="M8.012,50.377h0.972l1.953,6.001h-0.856l-0.432-1.43H7.33l-0.449,1.43H6.109L8.012,50.377z M8.477,51.083
				H8.461l-0.939,3.2h1.92L8.477,51.083z"/>
			<path fill="#FFFFFF" d="M12.151,53.618v2.76h-0.765v-6.001h2.07c1.064,0,1.438,0.748,1.438,1.496
				c0,0.706-0.391,1.247-1.097,1.371v0.017c0.69,0.108,0.939,0.341,0.981,1.546c0.008,0.258,0.092,1.197,0.208,1.571h-0.798
				c-0.216-0.415-0.166-1.197-0.233-1.995c-0.058-0.731-0.648-0.765-0.906-0.765H12.151z M12.151,52.953h1.147
				c0.548,0,0.815-0.474,0.815-0.998c0-0.432-0.216-0.914-0.806-0.914h-1.155V52.953z"/>
			<path fill="#FFFFFF" d="M19.199,50.377v0.665h-1.579v5.336h-0.765v-5.336h-1.579v-0.665H19.199z"/>
			<path fill="#FFFFFF" d="M23.938,50.377v6.001H22.89l-2.369-5.203h-0.016v5.203h-0.682v-6.001h1.081l2.336,5.137h0.017v-5.137
				H23.938z"/>
			<path fill="#FFFFFF" d="M24.994,56.378v-6.001h3.092v0.665h-2.327v1.928h2.161v0.665h-2.161v2.078h2.377v0.665H24.994z"/>
			<path fill="#FFFFFF" d="M29.696,53.618v2.76h-0.764v-6.001h2.069c1.064,0,1.438,0.748,1.438,1.496
				c0,0.706-0.391,1.247-1.097,1.371v0.017c0.69,0.108,0.939,0.341,0.981,1.546c0.008,0.258,0.092,1.197,0.208,1.571h-0.798
				c-0.216-0.415-0.166-1.197-0.233-1.995c-0.058-0.731-0.648-0.765-0.906-0.765H29.696z M29.696,52.953h1.147
				c0.548,0,0.814-0.474,0.814-0.998c0-0.432-0.216-0.914-0.806-0.914h-1.156V52.953z"/>
		</g>
	</g>
</g>
<g id="Guides">
</g>
</svg>
