<?xml version="1.0" encoding="utf-8"?>
<!-- Generator: Adobe Illustrator 17.1.0, SVG Export Plug-In . SVG Version: 6.00 Build 0)  -->
<!DOCTYPE svg PUBLIC "-//W3C//DTD SVG 1.1//EN" "http://www.w3.org/Graphics/SVG/1.1/DTD/svg11.dtd">
<svg version="1.1" id="Layer_1" xmlns="http://www.w3.org/2000/svg" xmlns:xlink="http://www.w3.org/1999/xlink" x="0px" y="0px"
	 viewBox="0 0 30 30" enable-background="new 0 0 30 30" xml:space="preserve">
<g>
	<g opacity="0.35">
		<path fill="#FFFFFF" d="M25.337,11.625v14.697c0,0.437-0.153,0.809-0.459,1.115c-0.306,0.306-0.678,0.459-1.115,0.459H5.916
			c-0.437,0-0.809-0.153-1.115-0.459c-0.306-0.306-0.459-0.678-0.459-1.115V4.277c0-0.437,0.153-0.809,0.459-1.115
			c0.306-0.306,0.678-0.459,1.115-0.459h10.498c0.437,0,0.919,0.109,1.443,0.328c0.525,0.219,0.94,0.481,1.247,0.787l5.118,5.118
			c0.306,0.306,0.568,0.722,0.787,1.247C25.227,10.707,25.337,11.188,25.337,11.625z M6.441,25.797h16.796V13.2h-6.823
			c-0.437,0-0.809-0.153-1.115-0.459c-0.306-0.306-0.459-0.678-0.459-1.115V4.802H6.441V25.797z M16.939,11.1h6.167
			c-0.109-0.317-0.23-0.541-0.361-0.672l-5.134-5.134c-0.131-0.131-0.356-0.251-0.673-0.361V11.1z"/>
	</g>
	<g>
		<path fill="#5B8723" d="M25.337,10.625v14.697c0,0.437-0.153,0.809-0.459,1.115c-0.306,0.306-0.678,0.459-1.115,0.459H5.916
			c-0.437,0-0.809-0.153-1.115-0.459c-0.306-0.306-0.459-0.678-0.459-1.115V3.277c0-0.437,0.153-0.809,0.459-1.115
			c0.306-0.306,0.678-0.459,1.115-0.459h10.498c0.437,0,0.919,0.109,1.443,0.328c0.525,0.219,0.94,0.481,1.247,0.787l5.118,5.118
			c0.306,0.306,0.568,0.722,0.787,1.247C25.227,9.707,25.337,10.188,25.337,10.625z M6.441,24.797h16.796V12.2h-6.823
			c-0.437,0-0.809-0.153-1.115-0.459c-0.306-0.306-0.459-0.678-0.459-1.115V3.802H6.441V24.797z M16.939,10.1h6.167
			c-0.109-0.317-0.23-0.541-0.361-0.672l-5.134-5.134c-0.131-0.131-0.356-0.251-0.673-0.361V10.1z"/>
	</g>
</g>
</svg>
