<?xml version="1.0" encoding="utf-8"?>
<!-- Generator: Adobe Illustrator 17.1.0, SVG Export Plug-In . SVG Version: 6.00 Build 0)  -->
<!DOCTYPE svg PUBLIC "-//W3C//DTD SVG 1.1//EN" "http://www.w3.org/Graphics/SVG/1.1/DTD/svg11.dtd">
<svg version="1.1" xmlns="http://www.w3.org/2000/svg" xmlns:xlink="http://www.w3.org/1999/xlink" x="0px" y="0px"
	 viewBox="0 0 180 60" enable-background="new 0 0 180 60" xml:space="preserve">
<g id="Base">
</g>
<g id="Art">
	<g>
		<path fill="#314472" d="M38.209,30.348H25.601v5.512h12.609c3.061,0,5.552,2.372,5.552,5.286c0,2.915-2.49,5.286-5.552,5.286
			H22.259V19.776h15.951c1.596,0,2.894-1.236,2.894-2.756c0-1.52-1.298-2.756-2.894-2.756H16.47v37.681h21.74
			c6.253,0,11.34-4.844,11.34-10.798C49.55,35.192,44.462,30.348,38.209,30.348z"/>
		<path fill="#231F20" d="M38.209,22.451H25.601v5.512h12.609c6.253,0,11.34-4.844,11.34-10.798c0-5.954-5.087-10.798-11.34-10.798
			L37.981,6.37c-0.069-0.002-0.14-0.004-0.211-0.004l-30.127,0v37.681h30.566c1.596,0,2.894-1.237,2.894-2.756
			c0-1.519-1.298-2.756-2.894-2.756H13.432V11.878h24.777c3.061,0,5.552,2.371,5.552,5.286
			C43.761,20.079,41.27,22.451,38.209,22.451z"/>
		<g>
			<path fill="#231F20" d="M75.632,13.975c0,1.407-0.234,2.652-0.702,3.737c-0.468,1.084-1.149,1.997-2.044,2.74
				c-0.895,0.742-1.992,1.307-3.293,1.694c-1.301,0.387-2.832,0.581-4.593,0.581h-2.229v7.995c0,0.129-0.045,0.245-0.134,0.349
				c-0.09,0.103-0.237,0.187-0.444,0.252c-0.206,0.065-0.482,0.116-0.826,0.155c-0.344,0.039-0.784,0.058-1.321,0.058
				c-0.523,0-0.96-0.019-1.311-0.058c-0.351-0.039-0.63-0.09-0.836-0.155c-0.206-0.064-0.351-0.148-0.433-0.252
				c-0.083-0.103-0.124-0.22-0.124-0.349V8.186c0-0.606,0.168-1.062,0.506-1.365c0.337-0.303,0.781-0.455,1.331-0.455h6.296
				c0.633,0,1.235,0.023,1.806,0.068c0.571,0.046,1.256,0.142,2.054,0.29c0.798,0.149,1.607,0.423,2.426,0.823
				c0.819,0.4,1.517,0.907,2.095,1.52c0.578,0.613,1.018,1.329,1.321,2.149C75.481,12.036,75.632,12.955,75.632,13.975z
				 M69.955,14.343c0-0.877-0.165-1.6-0.495-2.168c-0.33-0.568-0.736-0.987-1.218-1.258c-0.482-0.271-0.988-0.442-1.517-0.513
				c-0.53-0.071-1.077-0.107-1.641-0.107h-2.312v8.499h2.436c0.867,0,1.593-0.109,2.178-0.329c0.585-0.219,1.063-0.526,1.435-0.919
				c0.372-0.394,0.654-0.865,0.846-1.413C69.859,15.585,69.955,14.988,69.955,14.343z"/>
			<path fill="#231F20" d="M97.473,21.951c0,1.471-0.206,2.814-0.619,4.027c-0.413,1.214-1.039,2.259-1.879,3.136
				c-0.84,0.878-1.892,1.556-3.159,2.033c-1.266,0.477-2.745,0.716-4.439,0.716c-1.638,0-3.062-0.213-4.273-0.639
				c-1.211-0.426-2.216-1.046-3.014-1.859c-0.798-0.813-1.39-1.813-1.776-3.001c-0.385-1.187-0.578-2.542-0.578-4.066
				c0-1.471,0.21-2.817,0.63-4.036c0.42-1.22,1.049-2.265,1.889-3.136c0.839-0.871,1.889-1.546,3.148-2.023
				c1.259-0.477,2.736-0.716,4.428-0.716c1.651,0,3.083,0.21,4.294,0.629c1.211,0.419,2.212,1.036,3.003,1.849
				c0.791,0.813,1.38,1.814,1.765,3.001C97.28,19.054,97.473,20.415,97.473,21.951z M92.127,22.145c0-0.852-0.072-1.636-0.217-2.352
				c-0.145-0.717-0.389-1.339-0.733-1.868c-0.344-0.529-0.802-0.942-1.373-1.239c-0.571-0.297-1.291-0.445-2.158-0.445
				c-0.771,0-1.445,0.133-2.023,0.397c-0.578,0.265-1.053,0.652-1.425,1.161c-0.371,0.51-0.65,1.123-0.836,1.839
				c-0.186,0.716-0.279,1.533-0.279,2.449c0,0.852,0.076,1.636,0.227,2.352c0.151,0.716,0.395,1.339,0.733,1.868
				c0.337,0.529,0.795,0.939,1.373,1.229c0.578,0.29,1.293,0.436,2.147,0.436c0.785,0,1.466-0.132,2.044-0.397
				c0.578-0.265,1.053-0.649,1.425-1.152c0.372-0.503,0.647-1.113,0.826-1.83C92.037,23.878,92.127,23.062,92.127,22.145z"/>
			<path fill="#231F20" d="M107.176,7.644c0,0.981-0.214,1.658-0.64,2.033c-0.427,0.375-1.218,0.561-2.374,0.561
				c-1.17,0-1.958-0.181-2.364-0.542c-0.406-0.361-0.609-1.013-0.609-1.955c0-0.981,0.21-1.662,0.63-2.043
				c0.42-0.38,1.215-0.571,2.384-0.571c1.156,0,1.941,0.184,2.354,0.552C106.969,6.047,107.176,6.702,107.176,7.644z M106.784,30.76
				c0,0.129-0.041,0.242-0.124,0.339c-0.083,0.097-0.224,0.178-0.423,0.242c-0.2,0.065-0.464,0.113-0.795,0.145
				c-0.33,0.032-0.75,0.048-1.259,0.048c-0.51,0-0.929-0.016-1.26-0.048c-0.33-0.032-0.595-0.08-0.795-0.145
				c-0.199-0.064-0.34-0.145-0.423-0.242c-0.082-0.097-0.124-0.21-0.124-0.339V13.53c0-0.129,0.041-0.242,0.124-0.339
				c0.082-0.097,0.224-0.181,0.423-0.252c0.2-0.071,0.465-0.126,0.795-0.164c0.33-0.039,0.75-0.058,1.26-0.058
				c0.509,0,0.929,0.019,1.259,0.058c0.33,0.039,0.595,0.094,0.795,0.164c0.199,0.071,0.34,0.155,0.423,0.252
				c0.082,0.097,0.124,0.21,0.124,0.339V30.76z"/>
			<path fill="#231F20" d="M129.554,30.76c0,0.129-0.041,0.242-0.124,0.339c-0.083,0.097-0.22,0.178-0.413,0.242
				c-0.193,0.065-0.458,0.113-0.795,0.145c-0.337,0.032-0.753,0.048-1.249,0.048c-0.509,0-0.932-0.016-1.269-0.048
				c-0.338-0.032-0.602-0.08-0.795-0.145c-0.193-0.064-0.33-0.145-0.413-0.242c-0.082-0.097-0.124-0.21-0.124-0.339v-9.854
				c0-0.839-0.065-1.497-0.196-1.975c-0.131-0.477-0.32-0.887-0.568-1.229c-0.248-0.342-0.568-0.606-0.96-0.794
				c-0.392-0.187-0.85-0.281-1.373-0.281c-0.661,0-1.328,0.226-2.003,0.678c-0.674,0.452-1.376,1.11-2.106,1.975V30.76
				c0,0.129-0.041,0.242-0.124,0.339c-0.083,0.097-0.224,0.178-0.423,0.242c-0.2,0.065-0.464,0.113-0.795,0.145
				c-0.33,0.032-0.75,0.048-1.259,0.048c-0.509,0-0.929-0.016-1.259-0.048c-0.33-0.032-0.596-0.08-0.795-0.145
				c-0.2-0.064-0.34-0.145-0.423-0.242c-0.083-0.097-0.124-0.21-0.124-0.339V13.491c0-0.129,0.034-0.242,0.103-0.339
				c0.069-0.097,0.193-0.177,0.372-0.242c0.179-0.064,0.409-0.113,0.692-0.145c0.282-0.032,0.636-0.048,1.063-0.048
				c0.44,0,0.805,0.016,1.094,0.048c0.289,0.032,0.512,0.081,0.671,0.145c0.158,0.065,0.271,0.145,0.341,0.242
				c0.069,0.097,0.103,0.21,0.103,0.339v1.994c1.018-1.033,2.054-1.807,3.107-2.323c1.052-0.516,2.15-0.775,3.293-0.775
				c1.252,0,2.308,0.194,3.169,0.581c0.86,0.387,1.555,0.913,2.085,1.578c0.529,0.665,0.911,1.442,1.145,2.333
				c0.234,0.89,0.351,1.962,0.351,3.214V30.76z"/>
			<path fill="#231F20" d="M145.16,29.056c0,0.568-0.038,1.004-0.113,1.307c-0.076,0.303-0.176,0.517-0.3,0.639
				c-0.124,0.123-0.307,0.232-0.547,0.329c-0.241,0.097-0.523,0.181-0.846,0.252c-0.323,0.071-0.674,0.126-1.053,0.164
				c-0.378,0.039-0.76,0.058-1.145,0.058c-1.032,0-1.927-0.123-2.684-0.368c-0.757-0.245-1.383-0.622-1.879-1.133
				c-0.495-0.51-0.86-1.152-1.094-1.926c-0.234-0.775-0.351-1.691-0.351-2.749v-8.847h-2.209c-0.262,0-0.462-0.152-0.599-0.455
				c-0.138-0.303-0.207-0.81-0.207-1.52c0-0.374,0.017-0.69,0.052-0.949c0.034-0.258,0.086-0.461,0.155-0.61
				c0.069-0.148,0.155-0.255,0.258-0.319c0.103-0.064,0.224-0.097,0.361-0.097h2.188V8.98c0-0.129,0.038-0.245,0.114-0.348
				c0.075-0.103,0.213-0.19,0.413-0.261c0.2-0.071,0.468-0.123,0.805-0.155c0.337-0.032,0.753-0.048,1.249-0.048
				c0.509,0,0.932,0.016,1.27,0.048c0.337,0.032,0.602,0.084,0.795,0.155c0.192,0.071,0.33,0.158,0.413,0.261
				c0.082,0.104,0.124,0.22,0.124,0.348v3.853h4.005c0.137,0,0.258,0.032,0.361,0.097c0.104,0.065,0.189,0.171,0.258,0.319
				c0.069,0.149,0.12,0.352,0.155,0.61c0.034,0.258,0.051,0.574,0.051,0.949c0,0.71-0.069,1.217-0.206,1.52
				c-0.138,0.303-0.338,0.455-0.599,0.455h-4.025v8.112c0,0.942,0.158,1.649,0.475,2.12c0.317,0.471,0.881,0.707,1.693,0.707
				c0.275,0,0.523-0.023,0.743-0.068c0.22-0.045,0.416-0.097,0.588-0.155c0.172-0.058,0.316-0.109,0.433-0.155
				c0.117-0.045,0.224-0.067,0.32-0.067c0.082,0,0.162,0.022,0.237,0.067c0.076,0.046,0.134,0.136,0.176,0.271
				c0.041,0.136,0.079,0.319,0.114,0.552C145.143,28.398,145.16,28.695,145.16,29.056z"/>
			<path fill="#231F20" d="M172.129,23.907c0,0.89-0.131,1.697-0.392,2.42c-0.261,0.723-0.623,1.362-1.084,1.916
				c-0.461,0.555-1.012,1.033-1.651,1.433c-0.64,0.4-1.345,0.729-2.116,0.987c-0.771,0.258-1.593,0.449-2.467,0.571
				c-0.874,0.123-1.848,0.184-2.921,0.184h-7.101c-0.454,0-0.836-0.126-1.146-0.377c-0.31-0.252-0.464-0.661-0.464-1.23V7.973
				c0-0.568,0.155-0.978,0.464-1.229c0.309-0.252,0.691-0.377,1.146-0.377h6.709c1.638,0,3.024,0.129,4.16,0.387
				c1.136,0.258,2.092,0.649,2.869,1.171c0.777,0.523,1.373,1.184,1.786,1.984c0.413,0.801,0.62,1.743,0.62,2.827
				c0,0.607-0.083,1.178-0.248,1.713c-0.165,0.536-0.406,1.023-0.723,1.462c-0.317,0.439-0.705,0.826-1.166,1.161
				c-0.461,0.336-0.988,0.607-1.579,0.813c0.757,0.129,1.456,0.355,2.096,0.677c0.64,0.323,1.197,0.739,1.672,1.249
				c0.475,0.51,0.85,1.107,1.125,1.791C171.991,22.287,172.129,23.055,172.129,23.907z M165.11,13.355
				c0-0.503-0.082-0.955-0.248-1.355c-0.165-0.4-0.413-0.732-0.743-0.997c-0.33-0.264-0.747-0.468-1.249-0.61
				c-0.502-0.142-1.173-0.213-2.013-0.213h-2.745v6.505h3.035c0.785,0,1.411-0.087,1.879-0.261c0.468-0.174,0.857-0.413,1.166-0.716
				c0.31-0.303,0.54-0.658,0.692-1.065C165.034,14.236,165.11,13.807,165.11,13.355z M166.493,24.081c0-0.581-0.103-1.1-0.31-1.559
				c-0.206-0.458-0.509-0.842-0.908-1.152c-0.399-0.31-0.909-0.548-1.528-0.716c-0.62-0.168-1.424-0.252-2.415-0.252h-3.221v7.124
				h3.923c0.756,0,1.393-0.074,1.909-0.223c0.516-0.148,0.963-0.368,1.342-0.658c0.378-0.29,0.674-0.651,0.888-1.084
				C166.386,25.129,166.493,24.636,166.493,24.081z"/>
		</g>
		<g>
			<path fill="#231F20" d="M68.246,40.774c0,0.832-0.146,1.582-0.439,2.251c-0.293,0.669-0.711,1.239-1.255,1.711
				c-0.544,0.472-1.212,0.836-2.003,1.094c-0.791,0.257-1.735,0.386-2.832,0.386h-2.016v5.994c0,0.069-0.021,0.129-0.062,0.18
				c-0.041,0.051-0.105,0.092-0.192,0.122c-0.087,0.03-0.206,0.056-0.357,0.077c-0.151,0.021-0.341,0.032-0.569,0.032
				c-0.229,0-0.418-0.011-0.569-0.032c-0.151-0.021-0.272-0.047-0.364-0.077c-0.091-0.03-0.155-0.071-0.192-0.122
				c-0.037-0.051-0.055-0.111-0.055-0.18V36.85c0-0.343,0.096-0.587,0.288-0.733c0.192-0.146,0.407-0.219,0.645-0.219h3.799
				c0.384,0,0.752,0.015,1.104,0.045c0.352,0.03,0.768,0.095,1.248,0.193c0.48,0.099,0.969,0.283,1.468,0.553
				c0.498,0.27,0.921,0.603,1.269,0.997c0.347,0.394,0.615,0.851,0.802,1.37C68.152,39.576,68.246,40.148,68.246,40.774z
				 M65.764,40.954c0-0.677-0.135-1.243-0.405-1.698c-0.27-0.454-0.604-0.793-1.001-1.016c-0.398-0.223-0.809-0.365-1.234-0.425
				c-0.425-0.06-0.839-0.09-1.241-0.09h-2.181v6.676h2.126c0.713,0,1.305-0.086,1.776-0.257c0.471-0.171,0.866-0.409,1.186-0.714
				c0.32-0.304,0.562-0.669,0.727-1.093C65.681,41.912,65.764,41.451,65.764,40.954z"/>
			<path fill="#231F20" d="M78.807,41.404c0,0.189-0.005,0.347-0.014,0.476c-0.009,0.129-0.027,0.229-0.055,0.302
				c-0.027,0.073-0.062,0.129-0.103,0.167c-0.041,0.039-0.098,0.058-0.171,0.058c-0.073,0-0.162-0.019-0.267-0.058
				c-0.105-0.038-0.224-0.077-0.357-0.116c-0.133-0.038-0.281-0.075-0.446-0.109c-0.165-0.034-0.343-0.052-0.535-0.052
				c-0.229,0-0.453,0.043-0.672,0.129c-0.219,0.086-0.45,0.227-0.693,0.424c-0.242,0.197-0.496,0.459-0.761,0.785
				c-0.265,0.326-0.558,0.725-0.878,1.197v7.615c0,0.069-0.018,0.127-0.055,0.174c-0.037,0.047-0.096,0.088-0.178,0.122
				c-0.082,0.034-0.197,0.06-0.343,0.077c-0.146,0.017-0.334,0.026-0.562,0.026c-0.219,0-0.402-0.008-0.549-0.026
				c-0.146-0.017-0.263-0.043-0.35-0.077c-0.087-0.034-0.146-0.075-0.178-0.122c-0.032-0.047-0.048-0.105-0.048-0.174V40.645
				c0-0.068,0.014-0.126,0.041-0.174c0.027-0.047,0.082-0.09,0.165-0.129c0.082-0.039,0.187-0.064,0.315-0.077
				c0.128-0.013,0.297-0.019,0.508-0.019c0.201,0,0.368,0.006,0.5,0.019c0.132,0.013,0.235,0.038,0.309,0.077
				c0.073,0.039,0.125,0.082,0.158,0.129c0.032,0.047,0.048,0.105,0.048,0.174v1.685c0.338-0.463,0.656-0.84,0.953-1.132
				c0.297-0.291,0.578-0.521,0.844-0.688c0.265-0.167,0.528-0.283,0.789-0.347c0.26-0.064,0.523-0.097,0.789-0.097
				c0.119,0,0.254,0.007,0.405,0.019c0.151,0.013,0.309,0.037,0.473,0.071c0.165,0.034,0.313,0.073,0.446,0.116
				c0.132,0.043,0.226,0.086,0.281,0.129c0.055,0.043,0.091,0.083,0.11,0.122c0.018,0.039,0.034,0.088,0.048,0.148
				c0.014,0.06,0.023,0.148,0.027,0.264C78.805,41.05,78.807,41.207,78.807,41.404z"/>
			<path fill="#231F20" d="M92.414,46.305c0,0.943-0.133,1.811-0.398,2.605c-0.266,0.793-0.661,1.477-1.187,2.052
				c-0.526,0.575-1.184,1.022-1.975,1.344c-0.791,0.321-1.708,0.482-2.75,0.482c-1.015,0-1.9-0.141-2.654-0.424
				c-0.754-0.283-1.383-0.695-1.886-1.235c-0.503-0.54-0.878-1.196-1.125-1.968c-0.247-0.772-0.37-1.646-0.37-2.624
				c0-0.943,0.13-1.811,0.391-2.605c0.261-0.793,0.654-1.477,1.18-2.052c0.526-0.574,1.182-1.021,1.968-1.338
				c0.787-0.317,1.705-0.476,2.757-0.476c1.015,0,1.9,0.142,2.654,0.424c0.754,0.283,1.383,0.695,1.886,1.235
				c0.503,0.54,0.88,1.196,1.131,1.968C92.288,44.466,92.414,45.336,92.414,46.305z M90.069,46.447c0-0.626-0.063-1.218-0.187-1.775
				c-0.125-0.557-0.33-1.046-0.616-1.466c-0.286-0.42-0.674-0.753-1.163-0.997c-0.489-0.244-1.098-0.367-1.827-0.367
				c-0.674,0-1.253,0.112-1.737,0.335c-0.484,0.223-0.883,0.538-1.197,0.946c-0.314,0.407-0.546,0.89-0.699,1.447
				c-0.152,0.558-0.228,1.166-0.228,1.827c0,0.635,0.062,1.231,0.187,1.788c0.125,0.558,0.332,1.044,0.623,1.46
				c0.291,0.416,0.68,0.746,1.169,0.991C84.883,50.878,85.492,51,86.221,51c0.664,0,1.241-0.111,1.73-0.334
				c0.489-0.223,0.891-0.536,1.204-0.939c0.314-0.403,0.544-0.883,0.692-1.441C89.995,47.729,90.069,47.115,90.069,46.447z"/>
			<path fill="#231F20" d="M107.104,46.253c0,1.012-0.117,1.921-0.35,2.727c-0.233,0.806-0.576,1.49-1.029,2.052
				c-0.453,0.562-1.013,0.995-1.68,1.299c-0.668,0.304-1.431,0.457-2.291,0.457c-0.366,0-0.704-0.034-1.015-0.103
				c-0.311-0.069-0.615-0.176-0.912-0.322c-0.297-0.146-0.592-0.33-0.885-0.553c-0.293-0.223-0.603-0.484-0.933-0.785v5.788
				c0,0.069-0.018,0.129-0.055,0.18c-0.037,0.051-0.096,0.094-0.178,0.129c-0.082,0.034-0.197,0.06-0.343,0.077
				c-0.146,0.017-0.334,0.026-0.562,0.026c-0.219,0-0.402-0.009-0.549-0.026c-0.147-0.017-0.263-0.043-0.35-0.077
				c-0.087-0.034-0.146-0.077-0.178-0.129c-0.032-0.051-0.048-0.112-0.048-0.18V40.645c0-0.077,0.014-0.139,0.041-0.187
				c0.028-0.047,0.082-0.088,0.165-0.122c0.082-0.034,0.187-0.058,0.315-0.071c0.128-0.013,0.283-0.019,0.467-0.019
				c0.192,0,0.35,0.006,0.474,0.019c0.123,0.013,0.226,0.037,0.308,0.071c0.082,0.035,0.139,0.075,0.171,0.122
				c0.032,0.047,0.048,0.109,0.048,0.187v1.557c0.375-0.36,0.736-0.673,1.084-0.939c0.347-0.266,0.697-0.486,1.049-0.662
				c0.352-0.176,0.713-0.309,1.084-0.399c0.37-0.09,0.761-0.135,1.173-0.135c0.896,0,1.66,0.163,2.29,0.489
				c0.631,0.326,1.145,0.772,1.543,1.338c0.398,0.566,0.688,1.224,0.871,1.975C107.013,44.618,107.104,45.413,107.104,46.253z
				 M104.758,46.498c0-0.592-0.048-1.164-0.145-1.717c-0.097-0.553-0.262-1.044-0.497-1.473c-0.235-0.429-0.55-0.772-0.945-1.029
				c-0.396-0.257-0.888-0.386-1.477-0.386c-0.294,0-0.584,0.041-0.869,0.122c-0.285,0.082-0.575,0.21-0.87,0.386
				c-0.294,0.176-0.603,0.408-0.925,0.695c-0.322,0.287-0.663,0.641-1.021,1.061v4.605c0.626,0.712,1.219,1.256,1.78,1.634
				c0.561,0.377,1.15,0.566,1.766,0.566c0.571,0,1.06-0.129,1.47-0.386c0.409-0.257,0.741-0.6,0.994-1.029
				c0.253-0.429,0.439-0.909,0.559-1.441C104.699,47.574,104.758,47.038,104.758,46.498z"/>
			<path fill="#231F20" d="M121.04,45.932c0,0.334-0.089,0.572-0.269,0.714c-0.179,0.142-0.383,0.212-0.613,0.212h-8.13
				c0,0.643,0.069,1.222,0.207,1.737c0.138,0.515,0.368,0.956,0.689,1.325c0.321,0.369,0.74,0.652,1.254,0.849
				c0.515,0.197,1.144,0.296,1.888,0.296c0.588,0,1.112-0.045,1.571-0.135c0.459-0.09,0.857-0.191,1.192-0.303
				c0.335-0.111,0.611-0.212,0.827-0.302c0.216-0.09,0.379-0.135,0.489-0.135c0.064,0,0.122,0.015,0.172,0.045
				c0.051,0.03,0.09,0.075,0.117,0.135c0.027,0.06,0.048,0.144,0.061,0.251c0.014,0.107,0.021,0.238,0.021,0.392
				c0,0.112-0.005,0.208-0.014,0.29c-0.009,0.081-0.021,0.154-0.034,0.219c-0.014,0.064-0.037,0.122-0.068,0.174
				c-0.033,0.051-0.073,0.101-0.123,0.148c-0.05,0.047-0.199,0.124-0.446,0.232c-0.247,0.107-0.567,0.212-0.96,0.315
				c-0.393,0.103-0.848,0.195-1.365,0.277c-0.517,0.081-1.068,0.122-1.653,0.122c-1.015,0-1.904-0.133-2.668-0.399
				c-0.764-0.266-1.406-0.66-1.927-1.183c-0.521-0.523-0.915-1.179-1.18-1.968c-0.265-0.789-0.398-1.707-0.398-2.753
				c0-0.994,0.137-1.889,0.411-2.682c0.274-0.793,0.67-1.466,1.186-2.019c0.516-0.553,1.141-0.978,1.872-1.274
				c0.731-0.296,1.55-0.444,2.455-0.444c0.969,0,1.794,0.146,2.476,0.437c0.681,0.292,1.241,0.684,1.68,1.177
				c0.439,0.493,0.761,1.072,0.967,1.737c0.206,0.665,0.309,1.374,0.309,2.129V45.932z M118.763,45.302
				c0.027-1.115-0.237-1.989-0.794-2.624c-0.557-0.635-1.382-0.952-2.477-0.952c-0.561,0-1.053,0.099-1.477,0.296
				c-0.423,0.198-0.777,0.459-1.062,0.785c-0.285,0.326-0.506,0.705-0.663,1.138c-0.156,0.433-0.244,0.886-0.262,1.357H118.763z"/>
			<path fill="#231F20" d="M131.697,41.404c0,0.189-0.005,0.347-0.014,0.476c-0.009,0.129-0.028,0.229-0.055,0.302
				c-0.027,0.073-0.062,0.129-0.103,0.167c-0.041,0.039-0.098,0.058-0.171,0.058c-0.073,0-0.163-0.019-0.267-0.058
				c-0.105-0.038-0.224-0.077-0.357-0.116c-0.133-0.038-0.281-0.075-0.446-0.109c-0.164-0.034-0.343-0.052-0.535-0.052
				c-0.229,0-0.452,0.043-0.672,0.129c-0.219,0.086-0.45,0.227-0.693,0.424c-0.242,0.197-0.496,0.459-0.761,0.785
				c-0.266,0.326-0.558,0.725-0.878,1.197v7.615c0,0.069-0.018,0.127-0.055,0.174c-0.036,0.047-0.096,0.088-0.178,0.122
				c-0.082,0.034-0.197,0.06-0.343,0.077c-0.146,0.017-0.334,0.026-0.562,0.026c-0.219,0-0.403-0.008-0.549-0.026
				c-0.147-0.017-0.263-0.043-0.35-0.077c-0.087-0.034-0.146-0.075-0.178-0.122c-0.032-0.047-0.048-0.105-0.048-0.174V40.645
				c0-0.068,0.014-0.126,0.041-0.174c0.028-0.047,0.082-0.09,0.165-0.129c0.082-0.039,0.187-0.064,0.315-0.077
				c0.128-0.013,0.297-0.019,0.508-0.019c0.201,0,0.368,0.006,0.501,0.019c0.132,0.013,0.235,0.038,0.308,0.077
				c0.073,0.039,0.126,0.082,0.158,0.129c0.032,0.047,0.048,0.105,0.048,0.174v1.685c0.338-0.463,0.656-0.84,0.953-1.132
				c0.297-0.291,0.578-0.521,0.844-0.688c0.265-0.167,0.528-0.283,0.789-0.347c0.26-0.064,0.523-0.097,0.789-0.097
				c0.119,0,0.254,0.007,0.404,0.019c0.151,0.013,0.309,0.037,0.473,0.071c0.165,0.034,0.313,0.073,0.446,0.116
				c0.133,0.043,0.226,0.086,0.281,0.129c0.055,0.043,0.092,0.083,0.11,0.122c0.018,0.039,0.035,0.088,0.048,0.148
				c0.014,0.06,0.023,0.148,0.027,0.264C131.695,41.05,131.697,41.207,131.697,41.404z"/>
			<path fill="#231F20" d="M145.015,40.311c0.274,0,0.462,0.058,0.563,0.174c0.1,0.116,0.151,0.285,0.151,0.508v11.23
				c0,0.069-0.018,0.127-0.055,0.174c-0.037,0.047-0.099,0.088-0.185,0.122c-0.087,0.034-0.204,0.06-0.35,0.077
				c-0.146,0.017-0.325,0.026-0.535,0.026c-0.229,0-0.416-0.008-0.563-0.026c-0.147-0.017-0.263-0.043-0.35-0.077
				c-0.087-0.034-0.148-0.075-0.185-0.122c-0.036-0.047-0.055-0.105-0.055-0.174V42.073h-6.378v6.457c0,0.797,0.126,1.4,0.377,1.808
				c0.251,0.407,0.702,0.611,1.351,0.611c0.21,0,0.398-0.019,0.562-0.058c0.165-0.038,0.311-0.079,0.439-0.122
				c0.128-0.043,0.238-0.084,0.329-0.122c0.091-0.038,0.174-0.058,0.247-0.058c0.046,0,0.089,0.011,0.131,0.032
				c0.041,0.021,0.073,0.062,0.096,0.122c0.023,0.06,0.043,0.141,0.062,0.244c0.018,0.103,0.027,0.232,0.027,0.386
				c0,0.249-0.018,0.444-0.055,0.585c-0.036,0.141-0.092,0.249-0.164,0.322c-0.074,0.073-0.183,0.139-0.329,0.199
				c-0.147,0.06-0.314,0.109-0.501,0.148c-0.188,0.039-0.386,0.071-0.597,0.096c-0.21,0.026-0.421,0.039-0.631,0.039
				c-0.64,0-1.189-0.079-1.646-0.238c-0.457-0.159-0.832-0.399-1.125-0.72c-0.293-0.322-0.505-0.729-0.637-1.222
				c-0.133-0.493-0.199-1.074-0.199-1.743v-6.766h-1.728c-0.137,0-0.247-0.069-0.329-0.206c-0.082-0.137-0.123-0.36-0.123-0.669
				c0-0.163,0.011-0.3,0.034-0.411c0.023-0.111,0.052-0.204,0.089-0.277c0.037-0.073,0.085-0.124,0.144-0.154
				c0.059-0.03,0.126-0.045,0.199-0.045h1.714v-2.753c0-0.06,0.016-0.116,0.048-0.167c0.032-0.051,0.091-0.096,0.178-0.135
				c0.087-0.038,0.203-0.066,0.35-0.083c0.146-0.017,0.329-0.026,0.549-0.026c0.228,0,0.416,0.009,0.562,0.026
				c0.146,0.017,0.26,0.045,0.343,0.083c0.082,0.039,0.142,0.084,0.178,0.135c0.036,0.051,0.055,0.108,0.055,0.167v2.753H145.015z
				 M145.989,36.735c0,0.498-0.101,0.836-0.302,1.016c-0.201,0.18-0.572,0.27-1.111,0.27c-0.53,0-0.894-0.088-1.09-0.264
				c-0.197-0.175-0.295-0.508-0.295-0.997c0-0.497,0.1-0.836,0.302-1.016c0.201-0.18,0.571-0.27,1.111-0.27
				c0.53,0,0.894,0.088,1.09,0.264C145.891,35.914,145.989,36.246,145.989,36.735z"/>
			<path fill="#231F20" d="M160.46,45.932c0,0.334-0.09,0.572-0.269,0.714c-0.179,0.142-0.383,0.212-0.613,0.212h-8.13
				c0,0.643,0.069,1.222,0.207,1.737c0.138,0.515,0.367,0.956,0.689,1.325c0.322,0.369,0.74,0.652,1.254,0.849
				c0.515,0.197,1.144,0.296,1.888,0.296c0.588,0,1.112-0.045,1.571-0.135c0.46-0.09,0.857-0.191,1.192-0.303
				c0.335-0.111,0.611-0.212,0.827-0.302c0.216-0.09,0.379-0.135,0.489-0.135c0.064,0,0.122,0.015,0.172,0.045
				c0.051,0.03,0.089,0.075,0.117,0.135c0.027,0.06,0.048,0.144,0.062,0.251c0.014,0.107,0.021,0.238,0.021,0.392
				c0,0.112-0.005,0.208-0.014,0.29c-0.01,0.081-0.021,0.154-0.034,0.219c-0.014,0.064-0.037,0.122-0.069,0.174
				c-0.032,0.051-0.073,0.101-0.123,0.148c-0.05,0.047-0.199,0.124-0.446,0.232c-0.247,0.107-0.567,0.212-0.96,0.315
				c-0.393,0.103-0.848,0.195-1.364,0.277c-0.517,0.081-1.068,0.122-1.653,0.122c-1.015,0-1.905-0.133-2.668-0.399
				c-0.764-0.266-1.406-0.66-1.927-1.183c-0.521-0.523-0.915-1.179-1.18-1.968c-0.266-0.789-0.398-1.707-0.398-2.753
				c0-0.994,0.137-1.889,0.411-2.682c0.274-0.793,0.67-1.466,1.187-2.019c0.516-0.553,1.141-0.978,1.872-1.274
				c0.731-0.296,1.55-0.444,2.455-0.444c0.969,0,1.795,0.146,2.476,0.437c0.681,0.292,1.241,0.684,1.68,1.177
				c0.439,0.493,0.761,1.072,0.967,1.737c0.206,0.665,0.309,1.374,0.309,2.129V45.932z M158.183,45.302
				c0.027-1.115-0.237-1.989-0.793-2.624c-0.557-0.635-1.382-0.952-2.477-0.952c-0.561,0-1.053,0.099-1.477,0.296
				c-0.423,0.198-0.777,0.459-1.063,0.785c-0.285,0.326-0.506,0.705-0.663,1.138c-0.156,0.433-0.244,0.886-0.262,1.357H158.183z"/>
			<path fill="#231F20" d="M171.652,49.071c0,0.592-0.117,1.119-0.35,1.582c-0.233,0.463-0.565,0.854-0.994,1.171
				c-0.43,0.317-0.942,0.558-1.536,0.721c-0.595,0.163-1.248,0.244-1.961,0.244c-0.439,0-0.858-0.032-1.255-0.096
				c-0.398-0.064-0.754-0.146-1.07-0.245c-0.315-0.099-0.583-0.201-0.802-0.309c-0.219-0.107-0.38-0.204-0.48-0.29
				c-0.101-0.086-0.174-0.206-0.219-0.36c-0.046-0.154-0.068-0.365-0.068-0.631c0-0.163,0.009-0.3,0.027-0.411
				c0.018-0.111,0.041-0.201,0.069-0.27c0.028-0.068,0.066-0.118,0.117-0.148c0.05-0.03,0.107-0.045,0.172-0.045
				c0.1,0,0.249,0.058,0.445,0.174c0.197,0.116,0.439,0.242,0.727,0.379c0.288,0.137,0.629,0.264,1.022,0.379
				c0.393,0.116,0.846,0.174,1.358,0.174c0.384,0,0.732-0.039,1.043-0.116c0.311-0.077,0.581-0.191,0.809-0.341
				c0.228-0.15,0.404-0.341,0.528-0.573c0.123-0.232,0.185-0.506,0.185-0.823c0-0.326-0.089-0.6-0.268-0.823
				c-0.178-0.223-0.414-0.42-0.706-0.592c-0.293-0.171-0.622-0.324-0.988-0.457c-0.366-0.133-0.743-0.272-1.131-0.418
				c-0.389-0.146-0.768-0.311-1.138-0.495c-0.37-0.184-0.702-0.409-0.994-0.675c-0.293-0.266-0.528-0.583-0.706-0.952
				c-0.178-0.369-0.267-0.81-0.267-1.325c0-0.454,0.093-0.89,0.281-1.306c0.187-0.416,0.468-0.78,0.843-1.094
				c0.375-0.313,0.844-0.564,1.406-0.752c0.563-0.188,1.218-0.283,1.968-0.283c0.329,0,0.658,0.026,0.988,0.077
				c0.329,0.052,0.626,0.116,0.891,0.193c0.265,0.077,0.491,0.161,0.679,0.251c0.187,0.09,0.329,0.169,0.425,0.238
				c0.096,0.069,0.16,0.129,0.192,0.18c0.032,0.051,0.055,0.109,0.069,0.174c0.014,0.064,0.027,0.144,0.041,0.238
				c0.014,0.095,0.02,0.21,0.02,0.347c0,0.146-0.007,0.273-0.02,0.38c-0.014,0.107-0.037,0.195-0.069,0.264
				c-0.032,0.069-0.071,0.118-0.116,0.148c-0.046,0.03-0.096,0.045-0.151,0.045c-0.082,0-0.201-0.047-0.357-0.142
				c-0.155-0.094-0.356-0.195-0.604-0.302c-0.247-0.107-0.537-0.208-0.871-0.302s-0.716-0.141-1.145-0.141
				c-0.384,0-0.723,0.041-1.015,0.122c-0.293,0.082-0.533,0.198-0.72,0.347c-0.188,0.15-0.329,0.328-0.425,0.534
				c-0.096,0.206-0.144,0.429-0.144,0.669c0,0.335,0.091,0.616,0.274,0.843c0.183,0.227,0.42,0.427,0.713,0.598
				c0.293,0.171,0.626,0.326,1.001,0.463c0.375,0.137,0.757,0.279,1.145,0.424c0.389,0.146,0.773,0.309,1.152,0.489
				c0.379,0.18,0.715,0.399,1.008,0.656c0.292,0.257,0.528,0.566,0.706,0.926C171.563,48.145,171.652,48.573,171.652,49.071z"/>
		</g>
	</g>
</g>
<g id="Guides">
</g>
</svg>
